<?xml version="1.0" standalone="no"?>
<!DOCTYPE svg PUBLIC "-//W3C//DTD SVG 1.1//EN" "http://www.w3.org/Graphics/SVG/1.1/DTD/svg11.dtd" >
<svg xmlns="http://www.w3.org/2000/svg">
<metadata></metadata>
<defs>
<font id="shadows_into_lightregular" horiz-adv-x="922" >
<font-face units-per-em="2048" ascent="1638" descent="-410" />
<missing-glyph horiz-adv-x="500" />
<glyph horiz-adv-x="2048" />
<glyph horiz-adv-x="2048" />
<glyph unicode="&#xd;" />
<glyph unicode=" " />
<glyph unicode="!" horiz-adv-x="282" d="M31 810q-3 48 0 96t3 72q0 184 8 365t20 373q6 16 14 21t22 5q20 0 28 -11t11 -25t2 -31t-1 -29v-612q0 -36 6 -76l12 -80q8 -40 11 -75t-5 -59q-4 -22 -23 -38t-41 -16q-36 0 -50 36t-17 84zM160 48v32q0 10 2 21t8 19t18 8q40 0 47 -19t7 -45q0 -28 -7 -46t-47 -18 q-12 0 -18 8t-8 19t-2 21z" />
<glyph unicode="&#x22;" horiz-adv-x="436" d="M52 1590q8 20 22 23t30 3q24 0 38 -9t12 -45q10 -118 18 -224t8 -218q0 -14 1 -30t-2 -31t-12 -26t-27 -11q-14 0 -24 33t-17 87t-13 118t-11 127t-10 117t-13 86zM282 1152v438q16 4 31 -1t26 -14t16 -20t5 -17v-452q-30 0 -54 16t-24 50z" />
<glyph unicode="#" d="M106 368q0 16 22 29t50 24t52 17t30 8v308q-34 2 -60 10q-24 4 -44 14t-22 24q-4 10 -5 20t-3 20q-2 12 -2 26h132q2 16 4 34q2 32 0 56q0 4 -5 28t-9 49t-8 48t-4 27v30q0 20 8 36t32 16q22 0 38 -20t26 -50t14 -66t7 -67t3 -55t2 -26q10 -6 34 -4t49 9t45 19t24 26v332 q0 6 10 16t16 10t27 -10t25 -16q2 -28 6 -62t10 -70t15 -72t19 -66h156q0 -24 -24 -38t-54 -23t-54 -20t-24 -31v-226q40 0 75 15t69 34t69 35t75 16q0 -34 -20 -56t-48 -37t-63 -30t-63 -32t-48 -43t-20 -66q0 -62 4 -110t20 -114l-66 -70l-62 272l-2 2q-2 0 -4 1t-4 1 q-54 0 -96 -27t-67 -69t-27 -93t22 -95l-24 -28q-18 10 -32 34t-24 52q-12 32 -22 68q-34 -16 -59 -22t-61 -6q-26 0 -43 7t-17 47zM358 729q0 -37 5 -76t12 -80t13 -77l154 104v264q-64 0 -115 -18t-59 -50q-10 -30 -10 -67z" />
<glyph unicode="$" horiz-adv-x="912" d="M6 794q2 84 42 147t97 116t122 99t121 98q-2 32 -6 88t2 113t30 99t78 42v-316q38 14 65 20t63 6q20 0 37 -8t17 -30q0 -26 -22 -39t-52 -21t-60 -13t-48 -17q0 -10 -1 -32t-1 -46v-206q0 -66 28 -126q86 -10 175 -40t157 -90q2 -2 2 -18v-18q0 -62 -31 -109t-76 -86 t-94 -75t-83 -76q0 -6 -1 -19t-1 -27v-26v-18q0 -44 9 -85t18 -83t18 -83t9 -83q0 -24 -12 -34t-40 -28l-24 24l-104 412q-8 -6 -26 -15t-38 -17t-37 -15t-25 -7q-12 0 -17 8t-8 17t-4 18t-1 13q0 6 1 14t3 8l152 78v10q0 4 1 9t1 9q0 38 -3 88t-9 98t-10 88t-6 56 q-14 -2 -50 -4t-82 -1t-95 7t-89 21t-66 40t-26 65zM134 818q0 -30 19 -46t47 -22t60 -7t54 -1q4 0 17 -1t25 1t22 8t10 18v338q-38 0 -83 -31t-83 -75t-63 -94t-25 -88zM512 684q0 -82 9 -151t23 -149q2 0 6 -1t6 -1q26 0 63 20t73 51t61 68t25 69q0 38 -37 58t-85 28 t-90 8h-54z" />
<glyph unicode="%" d="M32 1178q0 46 9 88t31 74t58 51t90 19q24 0 51 -12t49 -32t35 -45t13 -53q0 -38 -16 -93t-45 -107t-68 -88t-87 -36q-46 0 -70 26t-35 63t-13 76t-2 69zM132 1034q34 0 67 22t59 55t42 72t16 71q0 20 -10 35t-26 24t-34 14t-34 5q-32 0 -49 -41t-24 -92t-7 -99v-66z M262 52q0 4 1 13t1 13q24 182 55 375t71 386t92 382t118 367q16 10 30 17t34 7q14 0 26 -10t12 -28v-8q0 -4 -2 -6q-64 -192 -122 -393t-107 -400t-91 -393t-76 -376q-24 0 -33 17t-9 37zM643 457q3 31 3 53q0 20 -1 66t6 95t26 86t61 37q36 0 63 -19t44 -48t26 -63t9 -62 q0 -36 -11 -82t-32 -90t-53 -73t-72 -29q-34 0 -48 20t-19 49t-2 60zM724 512q0 -18 3 -31t25 -21q26 40 39 65t13 63q0 24 -5 39t-21 39q-20 -10 -31 -28t-16 -40t-6 -45t-1 -41z" />
<glyph unicode="&#x26;" horiz-adv-x="730" d="M32 550q0 70 24 116t60 72t78 31t78 -6t60 -35q20 -24 24 -54v426q0 10 13 17t29 11t29 5t17 1l-6 -412q54 48 102 78t82 42t50 4t4 -36t-57 -74t-129 -116q-6 -2 -10 -9t-6 -38t-3 -98t-1 -193q0 -20 -18 -33t-40 -18t-40 1t-16 24l16 256q-106 -114 -172 -152t-103 -22 t-51 75t-14 137zM101 560q-3 -50 8 -93t31 -47q-2 -16 11 -7t34 29t47 47t47 52t35 44t12 21q-70 86 -138 86q-42 0 -63 -41t-24 -91z" />
<glyph unicode="'" horiz-adv-x="318" d="M66 1204v14q0 26 11 46t39 20q32 0 50 -26t27 -64t11 -84t1 -88t-4 -73t-3 -41v-44q0 -30 -1 -65t-2 -65t-1 -42q-30 2 -51 24t-25 52q-2 16 -6 51t-9 77t-11 90t-11 91t-9 77t-6 50z" />
<glyph unicode="(" horiz-adv-x="598" d="M32 604q0 148 36 296t98 287t147 267t181 236q2 0 8 1t8 1q22 0 30 -17t8 -37v-13v-13q-90 -108 -166 -225t-131 -243t-86 -261t-31 -277q0 -90 23 -184t70 -176t120 -142t175 -78q-32 -16 -53 -22t-51 -6q-64 0 -117 32t-95 84t-75 117t-55 133t-33 131t-11 109z" />
<glyph unicode=")" horiz-adv-x="494" d="M50 1472v12q0 20 8 37t32 17h6q4 0 6 -2q100 -84 165 -170t103 -182t54 -205t16 -237q0 -92 -11 -197t-41 -204t-81 -189t-129 -152v26q0 68 29 143t63 161t63 179t29 199q0 114 -15 218t-50 196t-94 177t-151 161q-2 4 -2 12z" />
<glyph unicode="*" horiz-adv-x="986" d="M32 550q0 28 34 39t82 15t97 8t79 16l-244 150q-20 12 -28 28t2 30q8 12 18 19t26 1l258 -98v342q0 10 13 17t29 11t29 5t17 1l6 -356q24 20 60 57t69 79t58 79t29 57q8 2 16 -3t18 -14t19 -19t19 -16q18 -10 9 -30t-32 -45t-55 -53t-61 -55t-49 -51t-20 -42 q54 18 103 31t97 22t99 15t111 6q0 -18 -6 -45t-28 -35q-20 -4 -67 -14t-100 -23t-101 -24t-66 -17q-6 0 -13 -1t-15 -5l296 -178q10 -6 9 -20t-7 -30t-12 -28t-8 -14l-332 188l46 -372q0 -24 -12 -36t-27 -15t-27 3t-12 22l-46 358q-10 -58 -42 -108t-69 -90t-75 -72 l-62 -54q-14 10 -23 32t-27 40q-8 6 7 31t41 55t56 63t56 60t41 45t9 18q-86 -14 -149 -19t-89 -25q-14 10 -34 27t-20 37z" />
<glyph unicode="+" horiz-adv-x="956" d="M32 550q0 22 24 34t60 17t78 8t78 8t60 16t24 33v434q0 10 13 17t29 11t29 5t17 1v-442q114 36 243 70t253 34q0 -18 -6 -45t-28 -35q-20 -4 -67 -14t-100 -23t-101 -24t-66 -17q-6 0 -17 -3t-24 -8t-23 -8t-14 -5q-4 -4 -14 -13t-10 -13v-306q0 -24 -9 -39t-27 -15 q-14 0 -26 7t-16 21l-50 282q-6 0 -12 2q-6 0 -11 1t-7 1q-58 0 -118 -18t-108 -38q-14 10 -34 27t-20 37z" />
<glyph unicode="," horiz-adv-x="230" d="M58 140q0 58 29 80t83 22q18 -28 29 -57t11 -76t-15 -120t-47 -193l-78 -24q2 22 4 62t3 83t2 83t3 62q-2 4 -6 15t-9 24t-7 23t-2 16z" />
<glyph unicode="-" horiz-adv-x="818" d="M26 408q0 8 10 28t16 24q88 6 177 38t177 69t173 68t165 31q10 0 16 -10t9 -23t3 -25v-14q0 -8 -2 -19t-2 -13l-590 -178q-4 -2 -25 -3t-33 -1l-16 -2q-14 0 -32 2t-32 8t-14 20z" />
<glyph unicode="." horiz-adv-x="264" d="M52 78q28 30 48 41t52 11q54 0 54 -52q0 -12 -7 -27t-18 -29t-25 -21t-26 -1q-14 -10 -29 -5t-27 17t-19 29t-3 37z" />
<glyph unicode="/" horiz-adv-x="628" d="M12 -92l464 1522h98l-496 -1602q-26 0 -46 20t-20 46v14z" />
<glyph unicode="0" horiz-adv-x="632" d="M71 684q7 102 37 189t86 149t144 82q86 -16 130 -71t62 -130t23 -159t13 -154q0 -34 -3 -91t-11 -122t-24 -132t-45 -122t-72 -89t-103 -34q-36 -16 -73 18t-69 102t-57 162t-35 197t-3 205zM152 748q0 -2 2 -4q0 -214 17 -350t43 -208t59 -89t66 5t65 77t53 127t31 153 t2 155q0 58 -7 122t-22 121t-43 102t-70 65q-36 0 -71 -30t-62 -72t-45 -88t-18 -78v-8z" />
<glyph unicode="1" horiz-adv-x="230" d="M63 643q1 149 5 299t0 312q0 6 10 16t16 10t26 -10t26 -16q0 -40 3 -129t4 -200t4 -234t6 -234t5 -199t2 -130v-28v-34q0 -14 1 -26t-3 -21t-15 -14t-33 -5q-6 0 -16 10t-10 16q-20 162 -26 315t-5 302z" />
<glyph unicode="2" horiz-adv-x="1050" d="M42 856q0 2 1 7t1 7q38 42 87 96t107 102t121 79t135 31q70 -32 100 -103t31 -164t-21 -198t-59 -209t-82 -198t-87 -160l536 162q2 0 11 1t15 1q10 0 24 -2t25 -6t20 -12t9 -20q-72 -46 -167 -76t-196 -57t-197 -53t-172 -62q-26 0 -44 7t-18 49q58 98 113 201t98 208 t69 214t28 225q-20 66 -43 103t-67 28t-120 -71t-206 -192q-18 12 -35 27t-17 35z" />
<glyph unicode="3" horiz-adv-x="946" d="M32 1164q0 28 32 57t82 56t112 51t122 42t112 29t80 11q52 -26 68 -67t7 -92t-36 -107t-62 -110t-71 -104t-60 -86q42 26 91 27t95 1q52 0 106 -14t98 -43t72 -72t28 -103q0 -100 -54 -192t-132 -174t-168 -151t-162 -123q-18 10 -35 26t-17 38q0 32 35 66t86 73t113 84 t113 98t86 114t35 131q0 50 -21 83t-53 51t-73 25t-81 7q-44 4 -83 -13t-78 -40t-76 -48t-72 -40t-68 -11t-67 36v6q0 6 2 6l356 408q58 80 59 124t-32 59t-91 5t-119 -37t-117 -67t-82 -84q-2 0 -7 -1t-7 -1q-24 0 -45 21t-21 45z" />
<glyph unicode="4" horiz-adv-x="1032" d="M14 538q0 4 2 27t8 48t21 43t41 10q88 112 157 221t131 218t121 222t127 233q10 22 22 26t30 4q12 0 32 -4t20 -26v-766q68 0 132 16t132 16q18 -58 -4 -78t-65 -26t-97 -9t-98 -21v-640q0 -10 -13 -21t-30 -18t-34 -12t-27 -5v678zM240 666h24q40 10 101 27t119 34 t98 29l40 12v512q-44 -70 -99 -146t-108 -154t-100 -157t-75 -157z" />
<glyph unicode="5" horiz-adv-x="980" d="M38 1217q4 33 20 64t37 52t44 28t39 -9q18 0 31 -11t20 -25t10 -31t7 -31l614 154q2 0 13 1t17 1q18 0 34 -8t16 -30q0 -20 -7 -35t-21 -33q-100 16 -193 -3t-189 -47q-120 -32 -186 -59t-100 -70t-42 -114t-8 -193v-36q0 -24 1 -52t1 -56v-36q44 50 85 97t86 83t98 59 t121 23q42 0 71 -20t46 -50t25 -68t8 -72q0 -102 -33 -198t-88 -184t-124 -166t-141 -142q-22 8 -25 21t-3 29q0 42 23 84t58 86t76 92t75 102t58 116t24 136q-2 158 -133 118t-369 -300q-10 2 -18 7t-14 24t-12 57t-7 106t1 170t10 252q-36 22 -48 53t-8 64z" />
<glyph unicode="6" horiz-adv-x="768" d="M50 525q0 65 2 113l178 1000q4 12 27 19t39 7q22 0 30 -16t8 -36q0 -2 -1 -12t-1 -12q-44 -200 -75 -346t-51 -249t-31 -170t-17 -108t-6 -62v-33v-212t26 -178q20 52 42 115t49 126t60 122t75 104t94 72t118 27q34 0 55 -2t31 -11t14 -28t4 -53q0 -44 -16 -112t-45 -146 t-69 -158t-85 -143t-96 -104t-101 -41q-66 2 -111 38t-74 91t-45 124t-22 139t-6 135zM272 270q-14 -62 2 -106q14 -44 38 -49t53 16t60 60t61 87t57 96t47 86q46 110 51 166t-14 70t-58 -7t-84 -65t-90 -105t-77 -124t-46 -125z" />
<glyph unicode="7" horiz-adv-x="938" d="M24 1342q0 14 51 32t131 37t175 37t185 32t159 23t95 9q52 0 52 -52v-12q0 -10 -2 -14q-50 -110 -96 -229t-82 -243t-58 -250t-22 -246q0 -60 2 -107t7 -94t16 -98t29 -115q-4 -20 -12 -37t-28 -17q-18 -2 -41 7t-43 49t-31 118t-2 217t42 346t101 501l64 136 q-78 0 -155 -11t-153 -24t-153 -23t-155 -10h-24q-14 0 -25 3t-19 11t-8 24z" />
<glyph unicode="8" horiz-adv-x="682" d="M44 922q-16 58 1 124t53 128t88 115t108 88t111 46t100 -9t73 -80t30 -166q0 -70 -19 -145t-48 -149t-61 -144t-56 -128q0 -46 29 -90t62 -91t62 -97t29 -106q0 -60 -24 -102t-64 -68t-91 -38t-105 -12q-76 0 -115 39t-39 113q0 58 15 110t37 100l42 98q22 52 36 106 q-32 28 -76 68t-84 86t-67 98t-27 106zM142 964q0 -54 11 -94t33 -73t57 -64t81 -67q50 50 92 123t70 150t44 149t16 124q-58 -34 -113 -40t-82 9t-15 48t90 75h-76q-46 0 -85 -39t-66 -94t-42 -113t-15 -94zM246 152q14 -36 61 -51t98 -6t89 40t36 85q0 36 -12 74t-34 74 t-50 67t-58 51q-34 -20 -58 -60t-41 -90t-24 -99t-7 -85z" />
<glyph unicode="9" horiz-adv-x="974" d="M26 716q0 64 23 137t63 148t94 144t117 122t133 85t138 32q74 0 120 -22t73 -58t38 -85t15 -103t3 -111t1 -109q4 -96 13 -195t18 -196t16 -194t7 -195q0 -16 -1 -36t-6 -38t-19 -31t-40 -13q-20 0 -27 16t-11 38q2 50 -1 134t-7 184t-11 210t-13 212t-11 190t-7 144 q-40 -50 -87 -113t-100 -126t-109 -121t-114 -99t-117 -59t-117 -2q-14 0 -27 10t-24 26t-17 36t-6 38zM127 730q13 -22 47 -12t84 47t105 90t109 116t98 123t72 112t32 84q-108 0 -190 -38t-147 -103t-116 -151t-91 -180q-16 -66 -3 -88z" />
<glyph unicode=":" horiz-adv-x="246" d="M48 808q0 26 7 44t47 18q42 0 48 -17t6 -43q0 -22 -5 -45t-35 -23q-68 0 -68 66zM76 296q0 30 10 47t44 17q52 0 52 -54q0 -26 -18 -52t-48 -26t-35 22t-5 46z" />
<glyph unicode=";" horiz-adv-x="248" d="M58 140q0 58 29 80t83 22q18 -28 29 -57t11 -76t-15 -120t-47 -193l-78 -24q2 22 4 62t3 83t2 83t3 62q-2 4 -6 15t-9 24t-7 23t-2 16zM60 540q0 26 19 46t45 20q20 0 40 -17t24 -37t-1 -30t-15 -15t-23 -6t-21 -1q-24 0 -46 6t-22 34z" />
<glyph unicode="&#x3c;" horiz-adv-x="838" d="M98 726l4 6q2 4 2 6l606 504q10 10 17 23t14 22t18 13t29 -2q28 -10 31 -33t-5 -49q-2 -2 -2 -6q0 -2 -2 -4q-66 -92 -131 -150t-135 -108t-147 -102t-165 -132l14 -32q2 -4 44 -31t98 -62t117 -71t97 -58q8 -4 31 -14t50 -20t51 -19t34 -11q6 -22 8 -36t-6 -32 q-8 -24 -32 -42t-48 -26q-30 28 -89 64t-128 77t-141 85t-128 86t-87 81t-19 73z" />
<glyph unicode="=" horiz-adv-x="888" d="M44 230q0 8 9 28t15 24q102 8 200 37t195 61t196 57t201 25q0 -56 -46 -84t-106 -42t-119 -18t-85 -12q-22 -6 -78 -23t-117 -38t-115 -39t-74 -28q-22 10 -40 18q-14 10 -25 18t-11 16zM90 596q0 4 2 18t4 20q20 4 66 10t104 12l122 16q66 8 123 16t104 14t69 8h20t34 1 t34 2t20 1q0 -26 -41 -50t-104 -44t-138 -37t-145 -28t-126 -18t-80 -7q-68 0 -68 66z" />
<glyph unicode="&#x3e;" d="M94 296q6 40 59 93t126 110t154 117t144 115t96 105t9 86l-560 302q-6 6 -16 25t-10 27t5 18t13 22t17 21t17 15l612 -354q48 -32 42 -87t-49 -121t-113 -138t-148 -140t-154 -126t-131 -97t-82 -52t-3 7q-22 0 -25 20t-3 32z" />
<glyph unicode="?" horiz-adv-x="912" d="M26 1664q0 24 34 48t87 47t118 44t127 35t111 23t75 9q44 0 97 -7t96 -26t72 -54t29 -91q0 -102 -52 -202t-125 -189t-152 -166t-135 -137q-24 -12 -31 -37t1 -52t29 -52t54 -38t75 -8t92 35l38 -78q-42 -32 -98 -43t-108 -11q-38 0 -74 12t-66 34t-48 54t-18 72 q0 80 39 146t95 125t124 115t124 116t95 127t39 149q0 46 -24 68t-60 31t-78 8t-78 -1q-64 0 -122 -26t-111 -55t-105 -54t-106 -25q-24 0 -42 7t-18 47zM360 78q0 34 13 44t35 10q34 0 58 -25t24 -57q0 -28 -21 -39t-47 -11q-12 0 -23 9t-20 22t-14 25t-5 22z" />
<glyph unicode="@" horiz-adv-x="1936" d="M52 588q0 130 44 274t123 284t186 266t233 222t263 153t277 57q118 0 217 -55t170 -143t111 -197t40 -217q0 -98 -17 -195t-61 -176t-119 -127t-195 -48q-98 0 -153 21t-82 55t-34 74t-14 78t-19 68t-48 42q-34 -58 -85 -133t-112 -143t-132 -115t-149 -47q-46 0 -68 28 t-22 76q0 56 29 130t77 153t111 158t131 140t138 99t132 38q82 0 107 -32t25 -100v-26q0 -14 -5 -26t-16 -20t-35 0v-26q0 -18 -1 -38t-1 -40v-26q0 -58 9 -114t34 -99t68 -70t113 -27q100 0 158 40t89 104t39 142t8 154q0 88 -24 184t-75 174t-129 129t-184 51 q-132 0 -259 -47t-241 -129t-211 -190t-167 -231t-110 -253t-40 -256q0 -152 41 -255t119 -165t192 -89t260 -27q242 0 457 79t419 205q26 16 40 38t27 44t31 36t52 14q66 0 78 -23t-24 -85q-124 -88 -257 -163t-274 -129t-291 -85t-302 -31q-142 0 -268 32t-220 103 t-149 182t-55 271zM512 680q36 0 73 21t72 51t64 62t47 56l49 70t71 108t68 109t42 73h92q0 30 -16 52t-50 22q-56 0 -115 -31t-117 -83t-108 -119t-89 -136t-61 -136t-22 -119z" />
<glyph unicode="A" horiz-adv-x="800" d="M52 52q6 28 10 72t11 116t16 178t25 258t37 357t55 477q2 20 19 24t31 4q22 0 36 -16t25 -36t21 -42t22 -36q20 -46 41 -106t45 -128t48 -137t48 -134t45 -120t39 -91q22 2 62 17t86 29t90 22q23 4 43 4q17 0 31 -3q30 -7 39 -35q2 -8 2 -18q0 -27 -17 -70q-14 0 -26 5 l-24 10t-25 10t-29 5q-10 0 -45 -11t-75 -24t-70 -26t-30 -19l138 -542l-52 -76q-34 58 -57 133t-43 150t-41 140t-53 109q-42 -20 -100 -34t-112 -35t-93 -56t-47 -95q-4 -24 -7 -64t-7 -76q-6 -44 -10 -90h-102zM224 502q38 0 81 10t83 27t73 42t51 57q-16 70 -35 145 t-41 152t-48 151t-56 144q-2 2 -14 9q-4 2 -8 2q-11 0 -28 -11l-4 -34q-2 -34 -6 -79t-9 -92t-7 -79q-10 -112 -21 -221t-11 -223z" />
<glyph unicode="B" horiz-adv-x="1100" d="M50 1334q0 10 1 20t6 18t16 12t29 -2q12 -4 24 -15t23 -28t18 -33t11 -26q46 36 100 73t115 66t124 47t121 18q20 0 48 -4t53 -14t42 -27t17 -43q2 -13 2 -25q0 -36 -13 -72q-17 -49 -46 -95t-66 -90t-74 -84t-68 -74t-47 -60q82 54 177 79t191 25q30 0 65 -3t65 -15 t50 -34t20 -62t-37 -111t-96 -156t-130 -172t-137 -158t-119 -116t-75 -45l-52 24q10 38 50 90t95 108t118 118t119 120t98 113t55 100q5 16 5 30q0 26 -16 46q-24 31 -98 47q-78 0 -164 -27t-164 -77t-139 -119t-89 -155q0 -56 9 -110t19 -107t19 -107t9 -108q0 -40 -6 -66 t-50 -26q-4 0 -13 1t-9 3l-178 1204q-16 30 -22 52t-6 52zM206 1104q0 -74 10 -157t40 -153q30 26 75 69t94 93t96 106t86 108t62 97t23 75q0 24 -15 32t-35 8q-48 0 -123 -20t-144 -56t-119 -87t-50 -115z" />
<glyph unicode="C" horiz-adv-x="998" d="M50 358q0 64 13 174t40 236t67 255t95 233t126 170t157 66q50 0 85 -18t58 -49t34 -70t11 -85q-36 0 -58 19t-40 41t-37 41t-51 19q-64 0 -118 -61t-98 -155t-78 -209t-57 -224t-35 -198t-12 -133q0 -58 6 -113t26 -99t58 -71t108 -27q80 0 159 52t147 127t118 160 t72 149q4 2 18 3t18 1q24 0 45 -5t21 -37q-12 -64 -56 -135t-104 -139t-132 -126t-140 -98t-126 -55q-26 -7 -48 -7q-26 0 -46 10q-66 0 -113 37t-76 91t-43 116t-14 114z" />
<glyph unicode="D" horiz-adv-x="1136" d="M44 1204q0 30 13 49t34 35t45 32t45 41t34 63t13 96q40 0 50 -14t12 -33t5 -38t29 -27q28 1 62 1t73 -1q79 -2 166 -13t172 -33t152 -62t106 -101q35 -55 35 -133v-16q-26 -154 -99 -296t-172 -273t-214 -251t-229 -230q-2 0 -6 -1t-6 -1q-18 0 -30 12t-12 30 q0 40 50 103t124 143t162 174t162 195t124 206t50 207q0 54 -30 93t-77 67t-106 44t-119 25t-114 12t-92 3q-10 0 -26 -1t-33 -2t-31 -3t-16 -2l-26 -24q0 -4 -1 -34t-2 -68t-1 -78v-62q0 -202 15 -401t15 -401q0 -12 1 -26t-1 -27t-11 -22t-27 -9q-12 0 -24 6t-14 20 l-78 1052q-6 -4 -21 -11t-31 -15t-31 -17t-19 -9q-2 0 -7 -1t-7 -1q-10 0 -23 5t-13 23z" />
<glyph unicode="E" horiz-adv-x="972" d="M66 1382q0 10 7 24t18 27t25 21t28 6q24 -6 39 -30t23 -53t11 -57t3 -40q60 32 135 69t154 68t158 52t149 21q0 -18 -7 -32t-27 -24l-562 -282v-78q2 -22 5 -76t7 -115t7 -116t5 -75l412 230l10 12q10 12 26 22t33 11t33 -21q0 -36 -36 -70t-90 -68t-117 -66t-117 -62 t-90 -60t-36 -56v-386q9 -3 20 -3q22 0 53 12q47 19 105 53t120 79t121 85t110 72t85 38q20 0 36 -8t16 -32t-28 -38q-70 -42 -161 -105t-185 -126t-185 -114t-157 -67q-26 0 -42 4t-36 24q0 162 2 318q1 52 1 104q0 104 -3 206q-4 154 -16 309t-36 315q0 4 -5 16t-9 25 t-8 23t-4 14z" />
<glyph unicode="F" horiz-adv-x="878" d="M60 1214v106q0 20 12 29t30 13t38 4t34 2v-190q132 38 216 77t150 72t131 60t157 47q14 0 20 -14t6 -26q0 -22 -26 -36l-642 -308l26 -564q148 82 250 140t168 96t103 58t55 28l22 10q4 2 6 2q4 0 6 -7t2 -17v-24q0 -10 4 -18q-10 -12 -59 -44t-117 -73t-145 -86 t-143 -85t-109 -69t-43 -39v-306q0 -26 -9 -40t-29 -14q-22 0 -39 50t-28 133t-19 191t-14 224t-9 232t-4 215t-1 171z" />
<glyph unicode="G" horiz-adv-x="1212" d="M44 230q-2 18 -2 39q0 64 19 148q25 111 75 234t119 244t151 220t173 159t185 60q14 0 31 -3t32 -9t25 -19t10 -35q0 -10 -45 -26t-103 -35t-112 -40t-72 -41q-72 -92 -137 -188t-116 -198t-86 -210t-47 -222q0 -56 22 -87t57 -46t81 -18t92 -3q80 8 160 55t151 117 t129 159t98 181h-312q0 24 29 44t74 37t101 31t110 24t100 14t72 4h22q14 0 26 -4t17 -15q2 -4 2 -9q0 -9 -7 -24q-2 -4 -13 -12t-24 -16t-25 -15t-16 -9q-42 -84 -60 -198t-20 -236v-41q0 -101 8 -202q10 -121 24 -217l-78 -52q-24 24 -39 68t-21 98t-6 114t3 117t6 107 t5 84q-58 -50 -121 -109t-134 -109t-147 -83t-160 -33q-44 0 -96 11t-97 37t-78 65t-35 93z" />
<glyph unicode="H" horiz-adv-x="870" d="M60 1304q0 12 9 32t15 22q6 0 17 -2t23 -7t23 -10t15 -9q8 -80 10 -184t5 -210t10 -205t25 -167q86 36 162 68t132 74t88 103q30 57 30 142v11q0 50 -2 88t-8 75t-17 80t-27 99q-4 36 12 46t38 10q26 0 40 -12t23 -32t11 -43t4 -43q4 -32 10 -96t13 -145t16 -171l17 -170 t13 -144t9 -96q6 -76 16 -150t10 -152v-32q0 -16 -3 -31t-14 -26t-35 -17q-36 26 -42 58t-10 70q-2 22 -4 67t-7 100t-10 116t-10 116l-9 99l-6 66q-22 -16 -77 -47t-117 -67t-118 -69t-78 -49q-44 -34 -60 -78t-16 -95t10 -106t14 -111q0 -28 -18 -52t-46 -24q-12 0 -26 7 t-14 21z" />
<glyph unicode="I" horiz-adv-x="314" d="M104 1494q0 16 11 23t26 8h10q10 0 22 -1q17 -2 29 -2q10 -24 17 -95t14 -172t10 -223t6 -247t4 -245t2 -219t1 -169v-90q-2 -40 -17 -47q-5 -2 -13 -2q-19 0 -56 11q-6 2 -10 60t-6 153t-4 218t-4 253t-5 260t-7 237t-11 184t-19 105z" />
<glyph unicode="J" horiz-adv-x="760" d="M26 282q0 6 10 16t16 10q26 -58 58 -122t75 -118t99 -89t128 -35q64 0 112 34t66 100q6 76 6 151q0 88 -8 175q-14 162 -36 323l-44 322t-24 325q0 10 -1 25t3 29t12 24t28 10q22 0 38 -28q50 -292 90 -594t40 -598q0 -80 -11 -148t-43 -117t-88 -78t-144 -29 q-76 0 -145 35t-122 94t-84 133t-31 150z" />
<glyph unicode="K" horiz-adv-x="1074" d="M52 1330q4 22 23 38t41 16q12 0 23 -9t19 -22t14 -26t6 -23l78 -690q12 12 51 77t92 152t114 181t119 163t104 98q19 12 35 12q22 0 37 -23q-90 -144 -158 -243t-119 -170t-86 -122t-61 -98t-44 -98t-34 -121q0 -8 5 -13t28 -12t71 -11t132 -8t212 -6t314 -2 q0 -30 -15 -59t-55 -29h-716q16 -56 23 -111t7 -109q0 -36 -13 -37t-57 -1l-5 1t-7 1q-4 14 -12 50t-16 76t-15 77t-9 53q-2 20 -8 86t-14 152t-16 184t-16 185t-14 151l-8 86q0 6 -3 23t-8 37t-8 40t-5 28q0 2 -5 14t-9 24t-8 23t-4 15z" />
<glyph unicode="L" horiz-adv-x="1100" d="M58 1232q0 34 20 43t50 9q34 0 53 -13t19 -67l38 -1076q2 0 20 4t42 12t50 17t42 17q24 10 72 32t108 50t127 59t128 58t108 50t71 33h24q12 0 24 -2t20 -10t10 -24q0 -20 -7 -34t-19 -32q-118 -22 -231 -80t-224 -120t-224 -110t-231 -48q-50 0 -50 78q-4 254 -9 435 t-9 305t-9 197t-7 117t-4 63t-2 37z" />
<glyph unicode="M" horiz-adv-x="1398" d="M60 1510v9q0 29 12 36q14 9 36 9q48 0 87 -23t71 -58t57 -77t45 -76q16 -26 44 -82l64 -130q36 -72 75 -151t75 -150t66 -126t46 -79q8 0 14 6t17 34t30 86t53 160t84 258t122 380q4 10 26 18t40 8t25 -12t11 -40q18 -170 29 -355t29 -374t45 -375t75 -354l-138 -54 l-116 1332q-8 4 -23 -45t-39 -126t-51 -174t-59 -193t-64 -179t-64 -131t-60 -53h-4q-25 0 -46 57q-16 28 -45 89t-67 137l-80 160t-79 159t-68 135t-45 88q-24 44 -43 71t-59 27q0 -140 16 -308t35 -340t35 -339t16 -309q8 -18 -5 -34t-36 -24q-12 -4 -26 -4q-12 0 -24 3 q-27 7 -45 33q-18 178 -19 363t-3 371t-16 373t-56 373z" />
<glyph unicode="N" horiz-adv-x="1108" d="M62 1230v96q24 0 54 -16t58 -38t52 -49t38 -45l590 -794q6 34 11 126q4 77 4 171v38q-1 117 -6 245t-14 239t-20 188t-29 93q0 30 11 56t43 26t52 -36t30 -81t15 -88t5 -57q2 -36 4 -109t4 -166t5 -197t6 -196t4 -167t3 -111q0 -26 9 -48l18 -44t17 -44t8 -46 q0 -40 -29 -59t-65 -19q-20 0 -35 5t-24 18t-10 33t7 52q-22 26 -68 85t-103 132t-121 153t-122 153t-104 131l-68 86q-4 6 -14 16l-48 48q-10 10 -16 14q-4 -52 -4 -103q0 -65 6 -130q10 -117 27 -233t34 -231t17 -231q0 -32 -6 -57t-48 -39q-40 14 -54 53q-7 18 -7 36 q0 20 9 39z" />
<glyph unicode="O" horiz-adv-x="784" d="M30 428q24 348 100 567t177 313q76 71 156 71q27 0 54 -8q109 -31 197 -183q30 -100 39 -224q4 -51 4 -102q0 -74 -8 -149q-13 -127 -46 -249t-91 -220t-138 -165t-184 -81q-74 0 -124 46t-80 113t-43 140t-13 131zM136 440q0 -50 5 -104t23 -99t55 -74t99 -29 q70 0 128 64t100 166t67 226t30 243q1 27 1 53q0 89 -13 166q-17 100 -59 151q-35 43 -89 43q-11 0 -22 -2q-69 -10 -165 -110q-28 -82 -56 -169t-50 -176t-38 -177t-16 -172z" />
<glyph unicode="P" horiz-adv-x="1042" d="M50 1346v6q0 2 2 6q16 18 39 62t49 87t50 76t42 33t27 -9t15 -21t13 -27t21 -23q60 36 132 62t145 36q43 6 84 6q29 0 58 -3q69 -7 125 -34t96 -77t52 -126q-2 -98 -57 -185t-136 -158t-175 -126t-173 -95t-130 -64t-47 -28v-718q0 -16 -14 -22t-26 -6q-22 0 -36 28 q-42 316 -52 653q-5 168 -5 331t5 320q-18 -10 -32 -18t-34 -8q-14 0 -26 12t-12 30zM254 1139q-2 -32 -2 -64q0 -40 3 -79q5 -70 27 -126q86 38 180 85t180 107t155 133t103 163q0 48 -35 82t-85 56t-103 31t-87 9q-20 0 -65 -11t-94 -28t-92 -41t-57 -48q-6 -58 -15 -127 t-13 -142z" />
<glyph unicode="Q" horiz-adv-x="1050" d="M58 670q0 32 6 109t21 175t41 201t61 189t82 140t109 54q8 0 23 -1t27 -8t17 -17t-3 -28q34 18 59 27t47 16t45 9t53 2q70 0 121 -43t86 -113t55 -162t28 -193q6 -73 6 -147q0 -28 -1 -56q-3 -102 -15 -194t-32 -167t-42 -119v-8q0 -2 2 -4l126 -230q0 -2 1 -11t1 -11 q0 -56 -54 -56h-12q-8 0 -12 2q-6 8 -20 31t-31 47t-31 45t-22 29q-2 4 -11 14t-13 14q-28 -36 -60 -72t-71 -66t-82 -50t-91 -20q-86 0 -149 32t-109 85t-76 122t-48 144t-25 149t-7 140zM158 652q0 -42 5 -99t16 -118t32 -121t53 -107t79 -77t113 -30q44 0 93 18t87 49 t64 74t26 91v16q0 10 -2 10l-178 386l100 50l130 -308q0 -2 4 -4t6 -2q20 0 33 29t21 73t11 95t3 97v78v36v100t-7 119t-20 120t-39 106t-67 76t-99 29h-23q-79 0 -138 -24q-67 -28 -113 -77t-76 -113t-49 -134t-33 -140t-28 -132q0 -8 -1 -31t-2 -50t-1 -51v-34z" />
<glyph unicode="R" horiz-adv-x="1032" d="M80 1624q2 0 14 -2t26 -3t27 -3t15 -2q10 0 30 -3t20 -23v-176q34 8 78 37t104 59t134 50q49 13 108 13q30 0 62 -3q148 -30 214 -71t70 -90v-8q0 -46 -41 -97q-45 -56 -119 -115t-165 -117t-178 -113t-159 -103t-108 -86q32 -14 93 -45t134 -68t152 -79t149 -77t126 -62 t80 -35q20 -10 38 -18q14 -10 27 -18t13 -16t-5 -22t-15 -26t-21 -21t-21 -9q-4 0 -9 1t-7 1q-4 2 -27 13t-48 25t-48 25t-29 13q-22 8 -71 31t-110 52t-129 63t-129 64t-110 52t-71 26v-612h-90zM184 896q8 10 56 34t116 60t147 80t149 91t123 93t68 85q5 13 5 25 q0 25 -21 46q-31 32 -129 50q-15 1 -32 1q-42 0 -91 -7q-69 -10 -138 -34t-129 -59t-96 -81q-4 -36 -8 -84t-9 -100t-8 -104t-3 -96z" />
<glyph unicode="S" horiz-adv-x="1108" d="M24 842q0 78 34 155t91 149t130 134t153 108t159 72t147 26q18 0 38 1h10q14 0 25 -2q15 -3 25 -15t10 -36q0 -58 -38 -83t-92 -25l-78 56q-46 0 -101 -26t-112 -69t-111 -99t-95 -116t-66 -120t-25 -108q0 -70 39 -113t104 -68t149 -37t170 -20t170 -15t149 -25t104 -48 t39 -82q9 -13 9 -28q0 -21 -18 -45q-31 -41 -96 -82t-154 -82t-183 -74t-182 -56t-150 -29q-18 0 -31 12t-5 42q4 20 50 38t114 38t150 44t158 54t139 68t93 88q0 30 -39 46t-104 27t-148 18t-170 20t-170 32t-148 54t-104 89t-39 132z" />
<glyph unicode="T" horiz-adv-x="1220" d="M24 1216q0 20 17 41t37 23l536 78q2 8 6 25t11 34t19 30t28 13q24 0 38 -12t24 -27l18 -27t20 -12h16q20 2 64 7t101 11t121 13t122 12t102 10t64 9q6 0 29 1t33 1q0 -38 -41 -63t-104 -42t-140 -26t-150 -15t-134 -10t-93 -10q-3 -49 -3 -100q0 -95 10 -196 q15 -154 38 -310t43 -310t20 -294q8 -28 7 -44t-11 -22t-30 -6t-48 2q-20 72 -35 169t-27 208t-23 229t-21 234t-22 222t-28 192h-36q-64 0 -129 -12t-129 -27t-128 -27t-130 -12q-20 0 -41 5t-21 35z" />
<glyph unicode="U" d="M62 1160q-1 7 -1 12q0 11 3 19q4 11 14 16t23 6t23 1h16q12 0 22 -2t18 -9t8 -19v-852q0 -36 11 -72t31 -67t50 -51t68 -20q76 6 131 81t95 189t66 248t46 258t35 220t33 134q25 23 44 23q9 0 16 -6q22 -17 33 -52t13 -76t-4 -59q0 -134 -13 -266t-13 -268q0 -86 8 -172 t18 -172t18 -171t8 -169q0 -16 -2 -33t-9 -31t-19 -24t-34 -10l-5 1t-9 1l-76 768q-20 -74 -53 -163t-82 -167t-117 -131t-158 -53q-70 0 -113 29t-67 78t-35 108t-15 119q-2 20 -4 81t-4 144t-5 177t-6 176t-5 144t-2 82z" />
<glyph unicode="V" horiz-adv-x="1074" d="M24 1158v6q0 26 23 33t43 7q24 0 39 -14t23 -38l462 -974l308 1282q4 14 14 19t26 5q18 0 42 -15q21 -13 21 -29q0 -3 -1 -6l-308 -1408q-14 -26 -39 -26h-7q-30 4 -60 23t-57 43t-41 36l-486 1050q-2 2 -2 6z" />
<glyph unicode="W" horiz-adv-x="1800" d="M34 1178q4 10 16 23t27 27t30 27t27 19q16 -12 27 -30t27 -61t39 -117t61 -198t95 -305t139 -435q8 6 29 64t51 145t65 194t69 216t65 208t53 171q6 28 9 55t9 49t21 37t51 15q6 3 13 3q21 0 39 -31q24 -40 49 -116t53 -177t63 -211t78 -219t101 -199l282 1152 q4 16 15 26t26 10t31 -14t30 -46l-280 -1128q0 -26 -6 -61t-16 -68t-23 -57t-30 -29t-37 14t-42 75q-112 198 -200 413t-160 455l-256 -844q-12 -88 -35 -141t-50 -79t-55 -32q-19 -4 -35 -4q-8 0 -15 1q-22 3 -33 12t-7 13q-46 62 -79 149t-60 190t-53 216t-55 224t-69 213 t-94 186z" />
<glyph unicode="X" horiz-adv-x="946" d="M44 128q32 60 83 128t101 142t92 148t56 146l-256 538q-2 2 -3 14t-1 20q0 34 11 52t47 18q4 0 13 -1t9 -3l256 -536q10 16 37 61t63 106t76 131t78 136t69 122t49 86q20 0 43 -5t23 -37v-8q0 -4 -2 -4l-378 -702l302 -578q2 -4 3 -17t1 -21q0 -10 -1 -24t-7 -24t-17 -16 q-6 -3 -13.5 -3t-17.5 3q-10 4 -30 24t-22 28q-22 54 -49 118t-60 130t-70 128t-77 110q-20 -16 -46 -50t-55 -77t-58 -93t-57 -95t-51 -84t-39 -61z" />
<glyph unicode="Y" horiz-adv-x="990" d="M24 1260v8q0 24 18 32t38 8q52 -62 111 -141t121 -157t126 -149t126 -117h26q8 14 28 69t49 131t61 168t61 181t50 167t31 128q2 4 12 4q30 0 49 -27q16 -22 16 -45q0 -5 -1 -10q-54 -190 -89 -312t-58 -199t-39 -124t-33 -89t-35 -93l-48 -136t-74 -218t-110 -339 q-2 0 -11 -1t-13 -1q-52 0 -52 52q0 72 22 141t48 139t45 139q14 52 14 109q0 18 -1 36q-58 64 -128 139t-138 156t-126 168t-94 177q-2 2 -2 6z" />
<glyph unicode="Z" horiz-adv-x="1374" d="M44 102q0 2 5 10t31 42t81 105t155 198t251 321t371 476v26q-102 12 -209 19t-215 9q-72 1 -144 1h-71q-107 -1 -205 -5q-14 10 -17 41t-3 45q0 4 76 5t192 1t251 -1t252 -2t197 -2t84 -1l16 -86l-920 -1152h74h111h111h258q86 0 171 1t170 8t181 17q20 -8 23 -22t3 -28 v-28q0 -12 -4 -24t-13 -19t-25 -5q-130 -16 -279 -21t-299 -7t-294 -7t-264 -17q-2 0 -13 -1t-15 -1q-38 0 -56 35t-18 69z" />
<glyph unicode="[" horiz-adv-x="964" d="M50 2170v14q0 14 1 31t7 30t23 16t49 -9q22 2 67 4t103 4t122 5t122 6t104 4t68 3q6 0 22 1t34 1h54q0 -30 -41 -50t-105 -32t-140 -17t-145 -7t-121 -1t-68 3l-28 -26q0 -2 -1 -20t-2 -42t-2 -46t-1 -36q0 -180 15 -360t34 -360t37 -361t24 -361q2 -42 4 -100t5 -120 t5 -123t5 -110t5 -81l2 -30l24 -52q2 -2 23 -3t31 -1q60 0 136 14t149 31t133 35t92 28q26 -54 10 -86t-60 -18l-564 -154q-14 -2 -27 6t-24 21t-18 28t-7 23v512l-154 1742v8q0 10 -1 19t-1 17z" />
<glyph unicode="\" horiz-adv-x="1136" d="M26 1996q8 20 18 38q8 14 16 27t18 13q12 0 40 -18t34 -34l948 -1944q2 -4 2 -14v-12q0 -34 -16 -44t-48 -10q-22 0 -38 2t-26 26l-768 1690z" />
<glyph unicode="]" horiz-adv-x="1050" d="M0 2304q0 22 25 35t66 21t88 12t93 6t83 2t53 2q30 2 80 6t109 9t120 7t109 2h28q18 0 34 -4t26 -14t10 -30q-16 -84 -24 -218t-8 -301t7 -354t16 -378t20 -375t23 -342t23 -280t17 -190q0 -18 -33 -34t-84 -29t-113 -25t-118 -20t-98 -13t-56 -5q-22 0 -48 17t-40 35 l28 26l382 102l26 26q0 2 1 13t2 26t1 29v24q0 274 -15 546t-31 545t-27 547t-7 548q-36 18 -53 23t-45 5q-68 0 -135 -9t-132 -19t-131 -19t-132 -9h-22q-16 0 -35 1t-35 1h-22q-6 6 -16 25t-10 27z" />
<glyph unicode="^" horiz-adv-x="800" d="M56 1388q0 4 1 9t1 7l254 474q2 8 22 20t42 12q2 0 6 -1l4 -1l328 -382q40 -8 47 -20t7 -32q0 -8 -3 -21t-11 -24t-21 -19t-33 -8h-8q-2 0 -2 2l-280 350q-10 18 -38 18h-10l-228 -398q-2 -4 -12 -10t-14 -6q-36 0 -44 8t-8 22z" />
<glyph unicode="_" horiz-adv-x="1254" d="M26 78q0 4 45 19t122 36t181 48t227 56t256 60t269 61q2 2 12 2h16q34 0 43 -19t9 -49q0 -24 -16 -39t-59 -29t-118 -29t-195 -40t-289 -62t-399 -93h-14q-12 0 -29 5t-32 16t-24 26t-5 31z" />
<glyph unicode="`" horiz-adv-x="318" d="M34 1434v14q0 26 11 46t39 20q42 -46 82 -94t63 -91t19 -75t-52 -44q-20 22 -46 49t-51 58t-44 62t-21 55z" />
<glyph unicode="a" horiz-adv-x="750" d="M2 250q0 44 20 124t54 175t81 193t101 178t112 132t116 52q19 3 35 3q60 0 92 -40q25 -31 25 -88q0 -36 -10 -83q0 -132 11 -226t24 -180t24 -180t11 -226q0 -24 -5 -41t-49 -17q-6 0 -15 10t-9 16q-10 52 -17 125t-15 148t-19 141t-33 108q-102 -208 -180 -327 t-137 -170q-57 -49 -96 -49h-3q-40 2 -66 36t-37 87t-15 99zM100 262q0 -72 22 -81q5 -2 10 -2q19 0 44 25q32 32 73 92t80 128t74 132t55 104q18 42 28 78t17 69t8 67t1 72q-12 18 -29 18q-14 0 -31 -12q-38 -26 -80 -86t-86 -144t-82 -170t-66 -163t-38 -127z" />
<glyph unicode="b" horiz-adv-x="906" d="M77 350q3 178 9 384t11 447q3 134 3 282q0 118 -2 245q22 0 46 3q14 2 27 2q8 0 16 -1q19 -2 32 -12t13 -36q0 -74 -5 -171t-13 -212t-13 -247t-5 -278q70 92 130 150t114 93t106 44q36 6 71 6q16 0 31 -1q58 0 95 -32t57 -80t28 -107t8 -115q0 -40 -5 -85t-23 -99 t-55 -111t-103 -121t-167 -132t-245 -140q-48 -14 -77 -17q-22 -2 -37 -2h-9q-17 1 -24 3t-7 4q-8 122 -8 255q0 40 1 81zM170 134q10 6 54 27t104 55t130 82t129 112t101 144t50 176q0 28 -8 60t-25 60t-43 47t-62 19q-74 0 -139 -40t-119 -100t-96 -129t-68 -127z" />
<glyph unicode="c" horiz-adv-x="800" d="M52 460q6 72 12 157t19 169t34 160t56 135t87 94q49 33 118 33h8q50 0 77 -42t38 -102t12 -123t1 -103q-40 0 -66 35t-40 81t-20 90l-6 58q-2 0 -7 1t-7 1q-34 0 -63 -38t-54 -97t-43 -132t-30 -143t-19 -129t-7 -91q-2 -26 -2 -54.5t2 -59.5q4 -62 24 -116t56 -93 t96 -53q74 0 120 20t75 54t45 76t31 87t31 89t46 82q24 6 35 -1t15 -19t4 -28v-22q0 -84 -28 -162t-82 -139t-129 -98t-171 -37q-80 0 -133 51t-82 123t-41 151t-12 135z" />
<glyph unicode="d" horiz-adv-x="648" d="M17 333v17q0 104 11 209q12 113 41 213t82 170t133 100q43 16 95 16q46 0 99 -12q4 34 4 81q0 32 -2 69q-4 94 -12 198t-16 201t-10 159q0 18 17 27t37 11q10 1 20 1t19 -1q19 -2 25 -6q-3 -164 -3 -324q0 -80 1 -159q2 -237 5 -472t7 -467t4 -464q0 -22 -3 -47t-35 -25 q-12 0 -24 7t-16 21l-6 510q-20 -46 -51 -106t-72 -114t-95 -92t-120 -38q-30 0 -47 7t-30 21t-24 34t-27 44q-6 98 -7 211zM105 381q-1 -21 -1 -41q0 -68 13 -124q17 -72 61 -98q44 0 82 35t70 89t56 121t41 129t26 113t9 77q0 20 2 64q1 15 1 29q0 29 -3 59q-4 44 -17 78 t-41 34h-9q-57 0 -106 -49q-53 -53 -92 -137t-63 -185t-29 -194z" />
<glyph unicode="e" horiz-adv-x="946" d="M-18 470q0 14 6 20t20 18q44 36 75 93t57 122t55 130t67 117t94 84q53 30 128 30h10q34 0 76 -16t78 -43t60 -65t24 -84q10 -16 -19 -46t-79 -65t-113 -72t-121 -69t-102 -56t-58 -36q-10 -20 -16 -46t-9 -49t-4 -42t-1 -29q0 -38 -3 -84q-1 -14 -1 -27q0 -31 5 -60 q7 -41 33 -68t88 -27q66 0 124 33t108 81t91 104t74 105t59 81t44 32q20 0 43 -7t23 -33q0 -36 -29 -86t-76 -106t-108 -111t-123 -98t-122 -70t-106 -27q-90 0 -136 44t-65 110t-20 141t-3 139l-30 -6t-42 -2t-39 12t-17 34zM260 682q30 0 87 23t113 57t98 72t42 72 q0 18 -14 30t-33 20t-39 12t-36 4q-34 0 -72 -33t-71 -80t-54 -96t-21 -81z" />
<glyph unicode="f" horiz-adv-x="708" d="M42 730q0 20 19 38t45 36t52 34t38 32q-4 32 -6 120q-1 35 -1 74q0 59 2 127q3 113 14 233t34 215t61 149q28 39 67 39q15 0 31 -5q42 0 76 -25t58 -62t37 -81t13 -80q0 -20 -9 -43t-33 -23h-6q-2 0 -4 2q-48 122 -81 155q-17 17 -31 17t-25 -16q-23 -32 -38 -114 t-25 -189t-18 -226t-16 -221q40 10 67 20t49 21t40 22t40 19q42 20 93 39t99 19q0 -58 -21 -96t-54 -62t-75 -35t-85 -19t-81 -16t-66 -20q6 -130 17 -228t20 -174t14 -139q2 -29 2 -57q0 -34 -3 -68q0 -14 1 -39t-2 -49t-15 -41t-38 -17q-24 0 -36 11t-16 45 q-12 162 -19 275t-11 190t-4 121v92q0 8 -2 8q-8 0 -24 -7t-33 -16t-33 -17t-28 -8q-20 0 -35 8t-15 32z" />
<glyph unicode="g" horiz-adv-x="896" d="M30 302q4 92 37 203t86 218t123 200t148 146t162 56h7q80 0 155 -65q2 -2 7 -53t12 -134t16 -186t17 -208t14 -201t12 -166q3 -36 3 -74q0 -81 -12 -168q-17 -128 -53 -249t-91 -227t-126 -174t-158 -87q-24 -5 -49 -5q-65 0 -136 36q-6 0 -18 1t-19 7t-3 16t26 30 q176 10 277 92t151 212t60 297q6 93 6 189q0 77 -4 156q-8 178 -23 357q-13 158 -13 296v37q-86 -252 -162 -407t-141 -234t-118 -96q-23 -7 -43 -7q-27 0 -50 13q-40 23 -65 74t-35 105zM134 316q20 -62 53 -63h2q32 0 69 42q38 43 83 121t89 170t87 189t81 181 q0 22 -10 41q-7 13 -26 13q-8 0 -18 -2q-56 -12 -109 -54t-98 -103t-82 -134t-64 -146t-42 -139t-15 -116z" />
<glyph unicode="h" horiz-adv-x="956" d="M68 78v1406q0 18 15 22q10 3 21 3q6 0 12 -1q18 -2 34 -9t20 -15l26 -1126q22 36 41 101t45 140t61 150t87 135t127 93q58 25 131 25q22 0 46 -2q68 0 110 -43t44 -113l20 -798q0 -8 -3 -23t-16 -26t-36 -14q-4 -1 -9 -1q-21 0 -50 12l-24 880q-27 10 -52 10 q-46 0 -90 -32q-68 -50 -130 -141t-118 -207t-104 -220t-87 -178t-71 -82q-24 0 -37 9t-13 45z" />
<glyph unicode="i" horiz-adv-x="272" d="M40 1472q0 24 16 32t36 8q40 0 50 -26t10 -60q-12 -22 -30 -31t-37 -4t-32 25t-13 56zM66 894q2 142 18 266q4 2 19 3t21 1q28 0 45 -9t17 -39q0 -118 -1 -257t-2 -282t-1 -283t4 -254v-8q0 -28 -13 -37q-15 -11 -37 -11q-24 0 -40 11t-12 45q0 130 -5 274t-10 291 q-4 105 -4 207q0 41 1 82z" />
<glyph unicode="j" horiz-adv-x="230" d="M-352 -428q0 38 15 41t39 -15t56 -48t64 -62t61 -54t51 -24q38 0 65 23t47 61t33 85t20 92t10 84t3 65q-4 152 -17 302t-23 298t-16 299q-2 57 -2 114q0 95 6 191q8 20 22 24t28 4q18 0 31 -4t21 -24q-4 -84 -4 -164t4 -157q8 -153 20 -302t23 -299t11 -312q0 -24 -5 -68 t-15 -97t-27 -109t-40 -102t-53 -76t-68 -30q-36 0 -96 26t-118 63t-102 84t-44 91zM60 1574q0 10 9 22t20 22t25 15t22 5q20 0 24 -20t4 -30q0 -54 -54 -54q-20 0 -35 9t-15 31z" />
<glyph unicode="k" horiz-adv-x="878" d="M52 -44l58 1580q35 33 58 33q5 0 9 -1q25 -8 37 -54t14 -120q1 -30 1 -62q0 -49 -2 -105q-3 -93 -11 -196t-14 -202t-8 -189v-35q0 -68 6 -121h6q4 0 6 2q104 104 186 220t148 219t117 179t95 104q30 0 51 -10t21 -46q0 -4 -1 -13t-1 -13q-50 -102 -110 -205t-130 -199 t-151 -182t-175 -156q0 -2 -1 -7t-1 -7q0 -20 33 -44t84 -46t114 -44t124 -38t114 -26t83 -10q0 -8 1 -30t-3 -46t-14 -43t-32 -19h-8q-4 0 -6 2l-572 230q-2 -118 -16 -191t-33 -108q-18 -33 -38 -33h-2q-21 2 -37 32z" />
<glyph unicode="l" horiz-adv-x="282" d="M44 1716q18 12 31 19t31 7q14 0 24 -5t16 -21q40 -392 55 -790t23 -792v-49t-2 -33q-26 -13 -47 -13h-3q-22 1 -40 12t-28 25t-10 26q14 92 19 230q4 114 4 242v52q-1 156 -7 322t-16 315t-23 267t-27 186z" />
<glyph unicode="m" horiz-adv-x="1186" d="M60 1178q0 40 18 47t46 7h18t20 -2q18 -60 23 -155t8 -207t6 -232t13 -228q28 158 47 262t36 167t32 94t34 41t42 9t55 -1q36 0 59 -28t36 -72t20 -96t13 -101t13 -89t23 -56q50 148 86 242t62 149t46 79t36 29t29 1t27 -4q54 0 82 -56q32 -90 44 -171t14 -156 q1 -50 1 -97v-46v-23q0 -56 4 -109q5 -64 22 -126t59 -122q-16 -32 -32 -43t-44 -11q-24 0 -42 17t-30 42t-19 51t-13 46q-8 286 -25 439t-51 161h-4q-33 0 -83 -133q-53 -141 -131 -441q-6 -10 -18 -12t-25 -2t-26 1t-25 -1q-50 294 -83 423q-27 105 -54 105q-6 0 -13 -6 q-34 -30 -76 -215t-108 -519l-100 -24q-6 56 -10 152t-8 209t-9 235t-11 232t-15 200t-19 144z" />
<glyph unicode="n" horiz-adv-x="990" d="M60 1130q0 48 52 48h16q6 0 14 -16t17 -59t20 -130t27 -227t36 -350q42 136 66 264t62 233t107 185t199 118q72 -12 116 -87t70 -185t36 -239t12 -247t2 -211t4 -133q-6 -16 -18 -28t-27 -17t-29 -2t-26 21q0 22 -4 90t-10 159t-13 194t-12 194t-9 159t-6 90 q-42 74 -83 84q-9 2 -18 2l-64 -28q-41 -36 -79 -110t-72 -167t-64 -195t-52 -197t-37 -172t-19 -119q-6 -14 -25 -27t-40 -19q-14 -4 -28 -4l-14 1q-21 3 -31 23q-22 270 -39 541t-37 563z" />
<glyph unicode="o" horiz-adv-x="546" d="M36 453q0 87 11 177t32 187t49 209q0 22 12 41t32 32t42 21t42 8q44 0 80 -28t65 -68t50 -85t35 -77q16 -70 23 -159q4 -48 4 -97q0 -42 -3 -84q-6 -92 -28 -181t-62 -163t-103 -124t-149 -62q-46 0 -70 31t-35 76t-12 91t-1 76q-14 92 -14 179zM151 464q1 -92 1 -184 q0 -20 1 -38t4 -35t8 -36t13 -43h12q48 0 82 32t58 83t40 114t25 124t12 114t3 85v40q0 26 -2 59t-7 68t-15 64t-26 47t-42 18q-18 6 -34 6q-23 0 -41 -12q-31 -20 -50 -67t-29 -115t-12 -150q-1 -55 -1 -114v-60z" />
<glyph unicode="p" horiz-adv-x="988" d="M54 1016q6 28 15 43q6 10 25 10q10 0 24 -3q42 -10 50 -47q5 -25 5 -53q0 -15 -1 -30q-4 -46 -12 -92q-4 -23 -4 -41.5t4 -32.5q64 46 136 96t150 89t162 58q43 10 86 10l82 -9q104 -24 145 -71q34 -39 34 -86q0 -11 -2 -22q-9 -61 -57 -134t-118 -147t-156 -146 t-168 -133t-153 -107t-113 -68q-2 -24 -5 -75t-6 -115t-6 -134t-6 -134t-6 -114t-3 -74q-4 -2 -14 -4t-24 -3t-26 -2h-7q-6 0 -9 1q-6 0 -12 11t-6 17q22 210 25 399q1 71 1 141q0 117 -3 232q-5 184 -15 372t-12 398zM167 501q3 -41 8 -86t11 -87t8 -72q76 58 177 118 t196 130t169 156t98 194q3 15 3 26q0 21 -10 31q-15 15 -51 21q-28 6 -60 6q-52 0 -114 -17q-98 -27 -189 -79t-159 -124t-84 -148q-4 -19 -4 -43q0 -12 1 -26z" />
<glyph unicode="q" horiz-adv-x="836" d="M42 270q0 56 19 128t52 147t79 147t100 129t114 92t124 35q78 0 110 -38t42 -116l186 -1356h-108q-4 6 -11 52t-16 118t-20 162t-23 185t-23 189t-22 170t-21 129t-18 69q-8 -56 -22 -128t-53 -138t-114 -115t-209 -55q-90 0 -128 52t-38 142zM144 254q0 -44 11 -61 t57 -17q27 -10 52 -10q31 0 60 15q52 27 93 86t73 138t53 162t30 158q7 61 7 107v20q-94 0 -174 -62t-138 -154t-91 -196t-33 -186z" />
<glyph unicode="r" horiz-adv-x="812" d="M52 964v16q0 20 15 28t35 8q16 0 30 -3t22 -23q6 -30 12 -83t14 -117t17 -135t18 -134t19 -113t22 -76q-2 48 -2 93q0 134 14 240q18 141 69 230t140 124q57 22 131 22q43 0 92 -7q62 0 62 -66q0 -26 -34 -35t-76 -12t-82 -7t-58 -20q-72 -40 -101 -124t-41 -198 t-17.5 -249t-26.5 -277q0 -20 -16 -30t-39 -10t-44 10t-33 30z" />
<glyph unicode="s" horiz-adv-x="750" d="M50 570q0 94 42 179t108 147t152 99t176 37q36 0 62 -6t26 -46q0 -28 -24 -53t-54 -25q-2 0 -10 3t-16 9t-16 9t-10 3q-21 6 -42 6q-42 0 -82 -24q-60 -36 -107 -97t-75 -132t-28 -127q0 -22 9 -35t24 -19t34 -7t39 -1q40 0 81 12t80 28t80 28t85 12q20 0 44 -11t44 -32 t34 -48t16 -59q5 -11 4 -24q0 -21 -11 -50q-19 -46 -57 -98t-92 -105t-108 -96t-106 -70q-48 -25 -83 -25h-5q-40 0 -47 24t-7 54q0 -2 43 24t102 69t121 94t102 97q43 50 43 82q0 30 -55 40q-33 5 -61 5q-34 0 -60 -7q-49 -12 -89 -28l-75 -30q-27 -11 -59 -11q-9 0 -18 1 q-88 0 -121 55t-33 149z" />
<glyph unicode="t" horiz-adv-x="550" d="M-70 887q-1 10 -1 17t1 12l192 110l12 512q3 22 24 22q4 0 8 -1q28 -5 58 -13q4 0 13 -3t13 -5q-4 -54 -9 -117t-9 -126t-5 -123v-17q0 -50 5 -91l300 84q8 2 13 -11t10 -31t7 -36l2 -18l-340 -144q0 -18 3 -86t7 -161t8 -200t8 -199t6 -161t2 -87q-4 -60 -35 -60t-67 30 l-50 870q-20 -10 -37 -21t-33 -20t-32 -13t-34 0q-12 0 -20 15t-13 34t-7 38z" />
<glyph unicode="u" horiz-adv-x="794" d="M66 966q8 20 21 24t31 4q16 0 29 -4t23 -24q0 -22 1 -74t5 -117t8 -136t7 -135t6 -115t5 -75q2 -14 5 -46t10 -67t18 -63t29 -30q30 0 61 26t61 66t56 88t47 93t32 81t13 52q4 34 8 97t6 135t3 136t1 98l110 -6q1 -54 1 -105q0 -101 -3 -188t-3 -168q0 -40 1 -78 q2 -115 18 -223t58 -224q-6 -6 -24 -17t-26 -11q-50 0 -67 33t-22 78t-8 90t-27 71q-8 -24 -39 -65t-73 -82t-87 -72t-79 -31q-64 0 -105 60t-63 154t-30 209t-10 225t-2 200t-6 136z" />
<glyph unicode="v" horiz-adv-x="726" d="M24 832q0 30 24 35t44 5q22 0 50 -37t63 -98t72 -133t76 -141t80 -125t79 -82q12 182 18 310t9 216t3 139t-1 79t-2 37t-1 13q0 36 13 44t35 8q26 0 54 -8t28 -40q3 -71 3 -143q0 -60 -2 -120q-5 -133 -15 -264t-16 -257q-3 -63 -3 -124t3 -120q-4 -4 -18 -9t-30 -9 t-31 -6t-21 -2q-20 4 -62 55t-94 129t-108 174t-107 186t-89 164t-52 110q0 2 -1 7t-1 7z" />
<glyph unicode="w" horiz-adv-x="1160" d="M56 957q0 23 10 41t32 26q22 0 39 -15t25 -35l230 -590q2 28 10 101t16 155t15 155t11 101q2 20 4 46t9 50t22 42t43 18q20 0 29 -4t21 -24l384 -656v676q58 0 81 -29t28 -71q2 -19 2 -39q0 -24 -3 -51q-4 -36 -4 -66v-20q0 -14 2 -60t5 -106t5 -129t5 -129t5 -106t2 -60 q7 -19 7 -32q0 -14 -8 -21q-15 -13 -41 -9t-52 22t-34 40l-408 692q-14 -302 -28 -504t-26 -340q-6 -22 -20 -24h-6q-11 0 -23 5q-15 7 -29 21l-24 24q-10 30 -34 94l-54 144t-64 170t-64 170l-54 144l-36 96q-12 18 -21 41t-9 46z" />
<glyph unicode="x" horiz-adv-x="930" d="M34 900q0 52 54 52q34 6 55 -6t37 -35t33 -57t42 -70t64 -73t101 -67q12 34 22 109t17 160t11 169t4 138q6 8 25 13q16 4 34 4h7q22 -1 40 -8t22 -21q4 -37 4 -74q0 -48 -7 -95q-13 -83 -32 -166t-35 -165q-11 -55 -11 -110q0 -28 3 -56l356 -358q2 -2 6 -16t4 -20 q0 -12 -2 -24t-9 -23t-18 -17t-29 -4q-26 28 -65 69t-85 86t-94 87t-92 66h-10l-2 2q-10 0 -18 -11t-21 -62t-36 -154t-65 -287q-26 -26 -50 -26h-3q-25 2 -40 20t-20 48t11 60l128 538q-34 40 -87 88t-104 98t-93 101t-52 97z" />
<glyph unicode="y" horiz-adv-x="744" d="M44 870q0 26 9 45t47 19q8 0 28 -9t24 -17q44 -70 91 -156t98 -172t107 -165t118 -135l48 784q2 0 11 1t13 1q18 0 36 -5t26 -27q1 -48 1 -111v-67q-1 -106 -4 -218t-6 -215t-5 -165q-2 -40 -7 -120t-12 -181t-16 -213t-17 -212t-14 -181t-10 -117h-104l60 774l-516 826 q-2 2 -4 15t-2 21z" />
<glyph unicode="z" horiz-adv-x="1266" d="M55 783q-2 5 -2 10q0 13 15 25q66 0 156 27t183 63t182 71t157 49q66 0 66 -66q0 -72 -25 -141t-62 -135t-80 -130t-80 -130t-63 -134t-26 -140v-24l732 150h14q28 0 51 -17t34 -38q6 -11 6 -22q0 -10 -5 -21q-10 -22 -50 -32q-8 0 -17 -2t-38 -7t-85 -14t-157 -27 t-256 -47t-381 -71q-4 17 -4 38q0 35 11 81q17 73 49 159t75 178t84 175t73 151t44 108q0 2 1 5t1 7t-1 8t-1 6q-56 -22 -123 -49t-135 -52t-133 -46t-119 -33q-8 -6 -28 4t-38 27t-25 36z" />
<glyph unicode="{" horiz-adv-x="714" d="M22 302q0 122 3 200t21 121t55 55t105 2q28 -4 28 24t-19 65t-49 71t-62 46q-54 38 -59 68t17 47t62 22t78 -7q34 12 55 24t26 30t-7 48t-46 82q-62 96 -74 183t15 158t85 121t132 68t158 -1t162 -83q0 -28 -19 -51t-45 -23q-2 0 -5 1t-5 1q-20 54 -68 72t-102 6 t-105 -51t-79 -97t-22 -131t66 -155q74 -98 83 -150t-43 -72l-26 -12q-24 -8 -53 -20t-55 -22l-24 -12q6 -22 28 -53t46 -59t45 -51t25 -31q22 -44 11 -71t-43 -47t-72 -40t-73 -51t-50 -79t-1 -128q0 -78 28 -137t70 -100t94 -69t99 -48t85 -34t54 -30q8 -8 5 -18t-12 -21 t-21 -20t-18 -15q-50 6 -123 17t-146 55t-133 138t-82 264z" />
<glyph unicode="|" horiz-adv-x="282" d="M44 1716q18 12 31 19t31 7q14 0 24 -5t16 -21q40 -392 55 -790t23 -792v-49t-2 -33q-28 -14 -50 -13t-40 12t-28 25t-10 26q14 92 19 230t4 294t-7 322t-16 315t-23 267t-27 186z" />
<glyph unicode="}" horiz-adv-x="714" d="M-14 1608q74 62 153 81t149 0t125 -68t80 -120t14 -161t-69 -184q-34 -52 -45 -83t-6 -49t25 -29t52 -23q34 12 72 7t59 -23t15 -49t-56 -69q-30 -8 -58 -43t-45 -73t-18 -66t25 -24q64 10 99 -1t52 -55t21 -122t4 -202q-14 -116 -45 -194t-71 -130t-86 -81t-93 -44 t-90 -20t-73 -9q-6 6 -17 16t-20 20t-13 20t6 18q14 16 50 31t81 35t94 48t90 70t67 100t26 140q14 78 -2 128t-48 81t-69 50t-66 39t-42 46t9 72q4 8 25 32t44 52t43 59t24 55l-22 10q-24 12 -52 23t-52 21l-20 10q-50 20 -42 73t80 151q54 80 60 155t-20 133t-75 99 t-100 54t-96 -6t-63 -75q-2 0 -6 -1t-6 -1q-22 0 -40 22t-18 54z" />
<glyph unicode="~" horiz-adv-x="940" d="M76 1252q4 62 31 104t66 67t86 34t90 5t79 -20t52 -44q28 -92 55 -123t53 -27t50 35t45 64t39 58t32 17q28 8 53 9t35 -35q12 -30 -7 -67t-54 -74t-76 -68t-77 -49q-30 -8 -59 -4t-54 15t-42 27t-23 34q-26 14 -37 42t-24 55t-31 46t-56 17q-42 0 -60 -20t-30 -48 t-25 -57t-39 -49q-20 -6 -33 -3t-20 11t-11 21t-8 27z" />
<glyph unicode="&#xa0;" />
<glyph unicode="&#xa1;" horiz-adv-x="282" d="M51 329.5q3 -36.5 3 -55.5q0 -141 7 -279.5t17 -285.5q5 -12 12 -16t19 -4q18 0 25 8.5t9.5 19t1.5 23.5t-1 22v470q0 27 5 58l11 61q7 31 9.5 57.5t-4.5 45.5q-3 17 -19.5 29t-36.5 12q-31 0 -43 -27.5t-15 -64.5t0 -73.5zM163 963q0 -8 2 -16.5t7 -14.5t16 -6 q35 0 41 14.5t6 34.5q0 21 -6 35t-41 14q-11 0 -16 -6t-7 -14.5t-2 -16.5v-24z" />
<glyph unicode="&#xa2;" horiz-adv-x="808" d="M52 460q8 104 18 225t38 230t81 189t143 98q-14 126 -32 204q18 12 32 19t32 7q14 0 24 -5t16 -21q4 -58 10 -112t8 -104q40 -20 87 -52t80 -72t42 -81t-25 -77q-24 0 -49 18t-49 45t-45 54t-37 45q6 -106 10 -212t8 -220t6 -237t6 -261v-20q56 26 83 72t45 101l36 110 t56 103q24 6 35 -1t15 -19t4 -28v-22q0 -66 -18 -130t-52 -118t-83 -96t-111 -66q6 -48 10 -89t4 -43q-52 -30 -84 -33t-32 21q4 28 6 59t6 63q-14 -4 -28 -4h-28q-80 0 -133 51t-82 123t-41 151t-12 135zM152 360q4 -62 24 -116t56 -93t96 -53q14 0 27 1t27 3q4 110 3 239 t-7 259t-15 258t-19 240q-30 -12 -57 -56t-48 -103t-37 -127t-27 -134t-17 -120t-6 -84q-4 -52 0 -114z" />
<glyph unicode="&#xa3;" horiz-adv-x="1104" d="M26 766q0 4 1 19t3 19q32 4 101 14t153 20q30 122 84 218t124 164t152 105t162 37q48 0 84 -18t59 -48t34 -70t11 -84q-36 0 -58 18t-40 40t-38 41t-50 19q-58 0 -121 -26t-120 -78t-104 -129t-73 -175q76 8 139 16t91 12q2 0 19 1t35 2t34 2t20 1q0 -24 -33 -46t-84 -40 t-116 -34t-129 -28l-40 -264q6 -68 -1 -140t-9 -128t6 -88t42 -18q20 8 48 30t67 46t89 44t111 25t136 -11t163 -64q48 -4 65 -22t6 -40t-49 -41t-98 -21q-14 34 -49 59t-100 27t-164 -26t-239 -106q-18 -16 -38 -25t-39 0t-34 42t-23 99t-5 171t19 261q2 22 5 41l6 38t8 41 t11 52q-58 -10 -102 -14t-64 -4q-68 0 -68 64z" />
<glyph unicode="&#xa4;" horiz-adv-x="1024" d="M78 257q6 29 30 53l182 268q-28 106 -33 198t35 188q-32 64 -50 124t-14 108q20 50 68 30q50 -10 62 -46t20 -88q56 54 146 76q84 -16 132 -60q30 68 55 129t41 103q10 6 29 3t39 -11t35 -20t13 -26q-20 -86 -61 -158t-87 -142q14 -56 17 -119t9 -125q0 -60 -4 -134 t-42 -160l64 -150v-15t-4 -21q-4 -10 -10 -21t-16 -19t-23 -10t-29 10q-12 26 -28 65t-36 85q-26 -22 -57 -34t-73 -12q-84 -36 -152 114q-30 -48 -71 -112t-97 -150q-36 -16 -58 -6t-30 33t-2 52zM358 814q0 -4 2 -6q2 -136 17 -214t39 -111t53 -30t58 26t55 61t44 76 t24 66t-2 32q0 58 -1 108t-11 90t-32 71t-66 51q-36 0 -69 -21t-58 -54t-39 -69t-14 -70v-6z" />
<glyph unicode="&#xa5;" horiz-adv-x="980" d="M98 414q0 8 10 27t16 25q98 6 176 17t146 23l2 112q-66 -6 -127 -7t-107 3q-68 0 -68 64q0 4 2 18t4 20q16 2 46 7t71 10t88 11t95 12l4 162q-18 32 -45 87t-56 120t-58 134t-52 130t-40 108t-17 67v6v6q6 16 15 21t20 5t23 -3t20 -7q32 -10 59 -56t55 -109t61 -133 t73 -128q70 168 115 266t70 147t36 59t13 4t0 -19t-2 -9q14 34 28 38t36 -6q26 -8 48 -23t14 -47q-38 -78 -73 -138t-65 -108t-56 -91t-48 -90t-40 -105t-30 -136l-2 -14q0 -12 -1 -32t-1 -44v-48q64 10 112 14t72 8q4 0 20 1t34 2t34 2t20 1q26 -36 11 -64t-58 -49 t-108 -35t-137 -24v-108q46 4 89 5t89 -5q56 -6 73 -19t9 -27t-32 -28t-50 -22q-30 10 -76 10t-102 -6q0 -76 -1 -148t-2 -126t-3 -85t-6 -31l-108 -12l8 388q-58 -8 -117 -17t-106 -11t-80 4t-43 26z" />
<glyph unicode="&#xa6;" horiz-adv-x="282" d="M44 1716q18 12 31 19t31 7q14 0 24 -5t16 -21q6 -70 13 -152t14 -169t12 -170t9 -155l-88 -4q-6 92 -13 190t-15 187t-17 161t-17 112zM94 102q12 86 19 174t10 188t0 217t-9 259h88q6 -130 10 -225t6 -182t3 -180t3 -219v-49t-2 -33q-28 -14 -50 -13t-40 12t-28 25 t-10 26z" />
<glyph unicode="&#xa7;" horiz-adv-x="750" d="M34 1060q0 94 41 178t108 147t153 99t176 36q36 0 62 -5t26 -47q0 -26 -24 -51t-54 -25q-2 0 -10 3t-16 9t-16 9t-10 3q-66 16 -125 -20t-106 -96t-76 -131t-29 -127q0 -24 10 -36t25 -19t34 -7h39q40 0 81 12t80 27t80 28t83 13q22 0 46 -12t44 -32t34 -47t16 -61 q12 -26 -7 -71t-57 -96t-89 -104t-105 -97q32 12 66 21t70 9q20 0 44 -11t44 -32t34 -48t16 -59q12 -28 -7 -74t-57 -98t-92 -105t-108 -96t-106 -70t-88 -25q-40 0 -47 24t-7 54q0 -2 43 24t102 69t121 94t102 97t43 79t-55 43q-72 10 -121 -2t-89 -28l-75 -30t-77 -10 q-88 0 -121 55t-33 149q0 82 30 154t82 130q-74 10 -101 64t-27 142zM152 552q0 -46 34 -49t83 23t107 75t105 102t75 103t20 83t-61 39t-167 -30q-42 -26 -78 -69t-62 -90t-41 -97t-15 -90z" />
<glyph unicode="&#xa8;" horiz-adv-x="628" d="M124 1478q28 30 48 41t52 11q54 0 54 -52q0 -12 -7 -27t-18 -28t-25 -21t-26 -2q-14 -8 -29 -4t-27 16t-19 29t-3 37zM388 1478q30 30 50 41t52 11q54 0 54 -52q0 -12 -7 -27t-19 -28t-26 -21t-26 -2q-12 -8 -28 -4t-28 16t-18 29t-4 37z" />
<glyph unicode="&#xa9;" horiz-adv-x="994" d="M30 428q16 232 69 407t127 294t163 181t178 69t170 -42t141 -149q66 -124 82 -260t-10 -267t-88 -250t-150 -210t-196 -146t-226 -57q-74 0 -124 46t-80 113t-43 140t-13 131zM136 440q0 -50 5 -104t23 -98t55 -74t99 -30q76 -2 142 23t122 70t102 107t80 132 q-20 -22 -49 -47t-64 -46t-76 -34t-85 -13q-68 0 -110 36t-65 85t-31 102t-8 85q6 64 15 141t36 142t79 109t142 44q42 0 64 -26t32 -60t11 -70t1 -60q-40 -8 -66 11t-42 44t-20 47t-2 24q-42 -2 -68 -42q-28 -42 -43 -98t-21 -111t-6 -85q-2 -30 -3 -66t9 -69t35 -56 t73 -31q74 22 111 54t60 65t46 65t67 54q24 4 33 -3t11 -17q16 196 -5 325t-66 201t-109 91t-133 -10t-137 -99t-122 -174t-88 -240t-34 -294z" />
<glyph unicode="&#xaa;" horiz-adv-x="466" d="M1 400q0 21 12 59t32.5 83.5t48.5 92.5t60 85.5t66.5 63t69.5 24.5q51 7 75.5 -17.5t9.5 -81.5q0 -63 6.5 -108t14 -86.5t14 -86.5t6.5 -108q0 -11 -3 -19.5t-29 -8.5q-4 0 -9 5t-5 8q-6 25 -10.5 60t-9 70.5t-11 67.5t-19.5 52q-61 -100 -107.5 -157t-82 -81.5 t-59 -23.5t-39 17.5t-22 42t-9.5 47.5zM60 405q0 -34 13 -38.5t32 11t43.5 44t47.5 61t44 63.5t33 50q11 20 17 37t10 33t4.5 32t0.5 35q-13 15 -35.5 2.5t-47.5 -41t-51.5 -69t-49 -81.5t-39 -78t-22.5 -61z" />
<glyph unicode="&#xab;" horiz-adv-x="1336" d="M98 726l4 6q2 4 2 6l606 504q10 10 17 23t14 22t18 13t29 -2q28 -10 31 -33t-5 -49q-2 -2 -2 -6q0 -2 -2 -4q-66 -92 -131 -150t-135 -108t-147 -102t-165 -132l14 -32q2 -4 44 -31t98 -62t117 -71t97 -58q8 -4 31 -14t50 -20t51 -19t34 -11q6 -22 8 -36t-6 -32 q-8 -24 -32 -42t-48 -26q-30 28 -89 64t-128 77t-141 85t-128 86t-87 81t-19 73zM480 748l4 8q2 4 2 6l606 504q10 10 17 23t14 22t18 13t29 -2q26 -10 30 -33t-4 -49q-2 -2 -2 -8l-2 -2q-68 -92 -132 -151t-135 -108t-147 -101t-164 -132l14 -32q2 -4 43 -31t98 -62 t117 -71t98 -58q8 -6 31 -16t50 -19t51 -18t34 -11q6 -22 8 -37t-6 -33q-10 -22 -33 -40t-49 -26q-30 28 -88 64t-128 77t-142 84t-127 86t-86 82t-19 71z" />
<glyph unicode="&#xac;" horiz-adv-x="1104" d="M130 718q0 8 11 27t15 25q88 6 196 13t219 14t215 13t184 6q10 0 17 -10t9 -23t2 -25v-14q0 -106 16 -213t16 -235q0 -10 -11 -16t-24 -8t-25 -2h-14q-8 0 -19 2t-13 2l-8 432l-634 -14q-4 0 -25 -1t-33 -1l-16 -2q-14 0 -32 2t-32 8t-14 20z" />
<glyph unicode="&#xad;" horiz-adv-x="818" d="M26 408q0 8 10 28t16 24q88 6 177 38t177 69t173 68t165 31q10 0 16 -10t9 -23t3 -25v-14q0 -8 -2 -19t-2 -13l-590 -178q-4 -2 -25 -3t-33 -1l-16 -2q-14 0 -32 2t-32 8t-14 20z" />
<glyph unicode="&#xae;" horiz-adv-x="784" d="M30 428q16 232 66 405t121 287t156 173t171 62t164 -47t138 -150q78 -132 105 -270t10 -267t-73 -245t-144 -200t-204 -133t-250 -45q-74 0 -124 46t-80 113t-43 140t-13 131zM136 440q0 -50 5 -100t24 -92t55 -73t98 -41q72 -16 136 -3t118 45t98 81t76 111 q-34 2 -84 44q-16 6 -57 31t-88 55t-88 55t-57 29v-266l-84 10l8 708l10 -6q12 -4 26 -8t25 -9l11 -5q4 0 14 -2t8 -10l-6 -52q16 2 39 15t54 26t69 22t80 5q92 -26 122 -61t19 -73t-52 -76t-90 -72t-95 -58l-72 -38q24 -12 63 -34t80 -46t78 -45t55 -27q34 -22 48 -42 q40 98 56 208t6 212t-49 185t-107 127t-166 40t-226 -76q-28 -82 -56 -169t-50 -176t-38 -177t-16 -172zM378 694q6 4 42 22l82 42q46 24 93 51t72 53t17 46t-66 30q-26 2 -58 -3t-65 -15t-61 -25t-44 -35q-2 -14 -3 -35t-3 -44l-4 -46t-2 -41z" />
<glyph unicode="&#xaf;" horiz-adv-x="818" d="M26 1400q0 8 11 28t17 24q88 6 176 17t175 23t170 21t163 9q10 0 17 -10t9 -22t2 -24v-16q0 -6 -1 -18t-1 -14l-584 -42q-4 -2 -25 -3t-33 -1l-16 -2q-14 0 -32 2t-33 8t-15 20z" />
<glyph unicode="&#xb0;" horiz-adv-x="412" d="M54 991q8 33 32 60t60 43t80 16q58 0 83 -21t45 -55q14 -56 14 -104t-20 -80t-66 -48t-124 -12q-30 0 -49 15t-31 37t-16 44t-4 38q-12 34 -4 67zM128 926q0 -20 13 -32t29 -32q34 -4 53 -6t31 5t21 23t23 46q4 48 -23 73t-60 25t-61 -25t-26 -77z" />
<glyph unicode="&#xb1;" horiz-adv-x="956" d="M32 550q0 22 24 34t60 17t78 8t78 8t60 16t24 33v434q0 10 13 17t29 11t29 5t17 1v-442q56 18 92 29t70 18t73 11t101 4q0 -18 -6 -45t-28 -35q-38 -8 -87 -17t-87 -19q-6 0 -17 -3t-24 -8t-23 -8t-14 -5q-4 -4 -14 -13t-10 -13v-312q66 14 133 23t141 9q10 0 16 -10 t9 -23t3 -25v-14q0 -8 -2 -19t-2 -13q-168 -12 -277 -22t-174 -19t-92 -14t-33 -5l-16 -2q-14 0 -32 2t-32 8t-14 20q0 8 10 28t16 24q74 4 139 14t127 22l-48 278q-6 0 -12 2q-6 0 -11 1t-7 1q-58 0 -118 -18t-108 -38q-14 10 -34 27t-20 37z" />
<glyph unicode="&#xb2;" horiz-adv-x="652" d="M35 772q0 1 0.5 4t0.5 4q22 23 51 53.5t63 57.5t71 44.5t79 17.5q41 -18 58.5 -58t18 -92t-12.5 -111.5t-34.5 -118t-48 -111.5t-50.5 -90l314 91q1 0 6.5 1t8.5 1q6 0 14.5 -1.5t15 -3.5t11.5 -6.5t5 -11.5q-42 -26 -98 -43t-115 -32t-115.5 -29.5t-100.5 -35.5 q-16 0 -26.5 4t-10.5 28q34 55 66.5 113t57.5 117t40.5 120.5t16.5 126.5q-12 37 -25.5 58t-39 16t-70.5 -40t-121 -108q-10 7 -20 15.5t-10 19.5z" />
<glyph unicode="&#xb3;" horiz-adv-x="574" d="M27 1010q0 15 18.5 31.5t48 32t65.5 29t71 24t65.5 16.5t46.5 6q31 -14 40 -37.5t4 -52.5t-21 -61t-36.5 -62.5t-41.5 -59t-35 -48.5q25 14 53.5 15t55.5 1q30 0 61.5 -8t57.5 -24.5t42.5 -41t16.5 -58.5q0 -57 -32 -109.5t-77.5 -99t-98 -85.5t-94.5 -70q-10 6 -20 15 t-10 21q0 19 20.5 38t50 41.5t66 48t66 55.5t50 64.5t20.5 74.5q0 28 -12 47t-31 29t-43 14t-47 4q-26 3 -48.5 -7t-45.5 -23t-44.5 -27t-42 -22.5t-40 -6.5t-39.5 20v4q0 3 2 3l208 232q34 46 34.5 71t-19 33.5t-53.5 2.5t-69.5 -21t-68 -38t-48.5 -48q-1 0 -4 -0.5 t-4 -0.5q-14 0 -26 12t-12 26z" />
<glyph unicode="&#xb4;" horiz-adv-x="318" d="M39 1244q-5 30 21 69t72 84t92 87q34 0 46 -18t12 -42v-14q-4 -24 -24 -52t-48 -56t-59 -54t-53 -46q-54 12 -59 42z" />
<glyph unicode="&#xb5;" horiz-adv-x="794" d="M54 -262l12 1332q8 20 21 24t31 4q16 0 29 -4t23 -24q0 -22 1 -74t5 -116t8 -135t7 -136t6 -116t5 -73q2 -16 5 -48t10 -67t18 -63t29 -30q30 0 61 26t61 66t56 88t47 93t32 81t13 54q4 32 8 96t6 136t3 136t1 96l110 -6q12 -168 14 -293t3 -228t5 -195t18 -192 q-4 -2 -20 -4t-36 -4t-37 -3t-21 -1l-28 178q-20 -46 -57 -89t-79 -76t-87 -53t-83 -22t-62 14t-28 58q-6 0 -10 -32t-8 -78t-6 -99t-2 -95v-94z" />
<glyph unicode="&#xb6;" horiz-adv-x="916" d="M46 924q0 80 15 140t50 102t92 71t143 47q100 8 164 14t109 8t82 -2t83 -16q0 -40 4 -129t8 -200t10 -234t9 -234t7 -199t4 -130q0 -4 1 -28t1 -34q0 -14 1 -26t-4 -21t-15 -14t-32 -5q-8 0 -18 10t-10 16q-14 114 -22 210t-12 179t-5 163t-1 164v178t-2 208 q-16 -12 -27 -14t-21 -3t-23 -9t-31 -32q4 -98 12 -224t16 -258t14 -258t6 -224q0 -16 -1 -37t-7 -39t-19 -30t-41 -12q-20 0 -27 16t-11 38q2 76 -4 192t-15 242t-19 246t-14 206q-8 -36 -45 -65t-87 -50t-106 -31t-103 -2t-78 33t-31 77z" />
<glyph unicode="&#xb7;" horiz-adv-x="264" d="M40 530q28 32 48 43t52 11q54 0 54 -54q0 -10 -7 -25t-19 -29t-25 -21t-27 -1q-12 -10 -27 -5t-28 16t-19 29t-2 36z" />
<glyph unicode="&#xb8;" horiz-adv-x="660" d="M126 -90q8 88 22 131t29 53t29 -6t22 -48t9 -72t-11 -76q92 -64 161 -98t115 -66t70 -77t24 -131q-14 -42 -62 -68t-110 -41t-127 -21t-111 -4q-42 0 -48 24t-6 56q0 6 41 14t94 20t103 29t66 41t-16 57t-142 77q-88 0 -120 55t-32 151z" />
<glyph unicode="&#xb9;" horiz-adv-x="230" d="M62 670.5q1 82.5 4.5 165t-0.5 171.5q0 4 9 9.5t14 5.5t23 -5.5t23 -9.5q0 -22 2.5 -71t3.5 -110t4 -129t5.5 -129t4 -109.5t1.5 -71.5v-16v-19q0 -7 1 -14t-2.5 -11.5t-13 -7.5t-29.5 -3q-5 0 -14 5.5t-9 8.5q-18 90 -23 174t-4 166.5z" />
<glyph unicode="&#xba;" horiz-adv-x="436" d="M31 510q0 44 8.5 89.5t25.5 94.5t39 105q0 11 9.5 20.5t25.5 16t33.5 10.5t33.5 4q35 0 64 -14t52 -34t39.5 -42.5t28.5 -39.5q12 -35 17.5 -80t1 -91t-22 -91t-49.5 -82.5t-82 -62.5t-119 -31q-37 0 -56 15.5t-28 38.5t-9.5 46t-0.5 38q-11 46 -11 90zM122.5 515.5 q0.5 -46.5 0.5 -92.5q0 -10 1 -19t3.5 -17.5t6.5 -18t10 -21.5h9q39 0 66 16t46 41.5t32 57.5t20 62.5t9.5 57.5t2.5 43v20q0 13 -1.5 29.5t-5.5 34t-12 32.5t-21 24t-33 9q-36 7 -60.5 -3t-39.5 -34t-23 -58t-9.5 -75.5t-1 -88z" />
<glyph unicode="&#xbb;" horiz-adv-x="1282" d="M94 296q6 40 59 93t126 110t154 117t144 115t96 105t9 86l-560 302q-6 6 -16 25t-10 27t5 18t13 22t17 21t17 15l612 -354q48 -32 42 -87t-49 -121t-113 -138t-148 -140t-154 -126t-131 -97t-82 -52t-3 7q-22 0 -25 20t-3 32zM468 320q8 42 61 95t126 110t154 117 t144 115t95 104t8 85l-560 304q-6 4 -16 23t-10 29q0 6 5 17t13 23t17 21t17 13l612 -352q48 -32 42 -87t-49 -122t-113 -139t-148 -139t-153 -126t-131 -97t-82 -52t-4 8q-20 0 -24 20t-4 30z" />
<glyph unicode="&#xbc;" horiz-adv-x="1390" d="M62 705q1 95 4.5 190t-0.5 198q0 4 9 10.5t14 6.5t23 -6.5t23 -10.5q0 -25 2.5 -81.5t3.5 -127.5t4 -149t5.5 -148.5t4 -126.5t1.5 -83v-17.5v-21.5q0 -9 1 -16.5t-2.5 -13.5t-13 -9t-29.5 -3q-5 0 -14 6.5t-9 10.5q-18 103 -23 200t-4 192zM72 -118l464 1522h98 l-496 -1602q-26 0 -46 20t-20 46v14zM401 321q0 3 2 18.5t7.5 32t19 29t37.5 6.5q81 76 144.5 149.5t120.5 147t111 149.5t117 157q9 15 20 18t27 3q12 0 30 -3t18 -18v-516q63 0 121.5 10.5t121.5 10.5q16 -39 -4 -52.5t-59.5 -17.5t-89 -6t-90.5 -14v-432q0 -7 -12 -14.5 t-27.5 -12t-31 -8t-24.5 -3.5v458zM609 407h22q36 7 92.5 18.5t109.5 23t90 19.5l37 8v345q-41 -47 -91.5 -98t-99 -104t-92 -106t-68.5 -106z" />
<glyph unicode="&#xbd;" horiz-adv-x="1420" d="M110.5 748q0.5 98 3.5 197t0 206q0 4 8 10.5t12 6.5q5 0 20.5 -6.5t19.5 -10.5q0 -26 2.5 -85t3 -132t3 -154t5 -154.5t4 -131.5t1.5 -86v-18v-22q0 -10 0.5 -18t-2.5 -13.5t-11.5 -9t-25.5 -3.5q-4 0 -12 6.5t-8 10.5q-15 107 -19.5 208t-4 199zM172 -92l464 1522h98 l-496 -1602q-26 0 -46 20t-20 46v14zM489 643q0 1 0.5 5t0.5 5q30 31 68 70.5t83 74.5t94 58t105 23q54 -24 77.5 -76t24 -120t-16.5 -145t-45.5 -153t-63.5 -145t-68 -117l416 119q2 0 9 0.5t12 0.5q7 0 18 -1.5t19.5 -4.5t15.5 -8.5t7 -14.5q-56 -34 -129.5 -56 t-152 -41.5t-153 -39t-133.5 -45.5q-21 0 -35 5t-14 36q45 72 88 147.5t76.5 152.5t53.5 156.5t22 164.5q-16 49 -34 76t-52 20.5t-93 -52t-160 -140.5q-14 8 -27 19t-13 26z" />
<glyph unicode="&#xbe;" horiz-adv-x="1778" d="M77 1159q0 21 25.5 42.5t64.5 41.5t88 38t96.5 31t88.5 21.5t63 8.5q41 -20 53.5 -50.5t5.5 -68t-28.5 -79.5t-49 -82t-56 -77t-47.5 -64q34 19 72.5 20t74.5 1q41 0 83.5 -10.5t77 -32t57 -53.5t22.5 -76q0 -75 -43 -143t-104 -129t-132 -112.5t-128 -91.5 q-14 7 -27.5 19t-13.5 29q0 23 27.5 48.5t68 54.5t89 62.5t89 72.5t68 84.5t27.5 97.5q0 37 -16.5 61.5t-42 38t-57.5 18.5t-64 5q-35 3 -65.5 -9.5t-61.5 -29.5t-60 -35.5t-56.5 -29.5t-53.5 -8.5t-53 26.5v5q0 4 2 4l280 303q46 60 47 92.5t-25 43.5t-72 4t-94 -27.5 t-92 -50t-65 -62.5q-1 0 -5 -0.5t-6 -0.5q-19 0 -35.5 15.5t-16.5 33.5zM616 -92l464 1522h98l-496 -1602q-26 0 -46 20t-20 46v14zM722 378q0 3 1.5 21t6 37.5t15 33.5t29.5 8q63 87 112.5 171.5t94 169.5t86.5 172.5t91 181.5q7 17 15.5 20t21.5 3q9 0 23.5 -3t14.5 -20 v-596q48 0 94 12.5t95 12.5q13 -45 -3 -60.5t-46.5 -20t-69.5 -7t-70 -16.5v-498q0 -7 -9.5 -15.5t-21.5 -14t-24.5 -9.5t-19.5 -4v527zM884 478h17q29 8 72.5 21t85.5 26t70 23l29 9v398q-32 -54 -71 -113.5t-77 -120t-72 -122t-54 -121.5z" />
<glyph unicode="&#xbf;" horiz-adv-x="1110" d="M171 79q0 93 54.5 184.5t131 172.5t159 151.5t141.5 125.5q25 11 32.5 33.5t-1 47t-30.5 47.5t-56.5 35t-78.5 7.5t-96 -32.5l-40 72q44 29 102.5 39t113.5 10q39 0 77 -11t69 -31t50 -49.5t19 -65.5q0 -73 -41 -133.5t-99.5 -114.5t-129.5 -105t-129.5 -105.5 t-99.5 -116t-41 -136.5q0 -42 25 -62t63 -28t82 -7t81 1q67 0 128 23.5t116.5 50t109.5 49.5t111 23q25 0 44 -6.5t19 -43.5q0 -22 -35.5 -43.5t-91 -42.5t-123.5 -40.5t-133 -32t-116.5 -21t-78.5 -8.5q-46 0 -101.5 6.5t-100.5 24t-75.5 49.5t-30.5 83zM571 1578 q0 26 22 36t49 10q13 0 24.5 -8t21 -20t14.5 -23t5 -20q0 -31 -13.5 -40.5t-36.5 -9.5q-36 0 -61 23t-25 52z" />
<glyph unicode="&#xc0;" horiz-adv-x="800" d="M82 0q6 28 10 72t11 116t16 178t25 258t37 357t55 477q2 20 19 24t31 4q22 0 36 -16t25 -36t21 -42t22 -36q20 -46 41 -106t45 -128t48 -137t48 -134t45 -120t39 -91q22 2 62 17t86 29t90 22t74 1t39 -35t-15 -88q-14 0 -26 5l-24 10t-25 10t-29 5q-10 0 -45 -11t-75 -24 t-70 -26t-30 -19l138 -542l-52 -76q-34 58 -57 133t-43 150t-41 140t-53 109q-42 -20 -100 -34t-112 -35t-93 -56t-47 -95q-4 -24 -7 -64t-7 -76q-6 -44 -10 -90h-102zM242 1738v14q0 26 11 46t39 20q42 -46 82 -94t63 -91t19 -75t-52 -44q-20 22 -46 49t-51 58t-44 62 t-21 55zM254 450q38 0 81 10t83 27t73 42t51 57q-16 70 -35 145t-41 152t-48 151t-56 144q-2 2 -14 9t-36 -9l-4 -34q-2 -34 -6 -79t-9 -92t-7 -79q-10 -112 -21 -221t-11 -223z" />
<glyph unicode="&#xc1;" horiz-adv-x="800" d="M52 52q6 28 10 72t11 116t16 178t25 258t37 357t55 477q2 20 19 24t31 4q22 0 36 -16t25 -36t21 -42t22 -36q20 -46 41 -106t45 -128t48 -137t48 -134t45 -120t39 -91q22 2 62 17t86 29t90 22t74 1t39 -35t-15 -88q-14 0 -26 5l-24 10t-25 10t-29 5q-10 0 -45 -11 t-75 -24t-70 -26t-30 -19l138 -542l-52 -76q-34 58 -57 133t-43 150t-41 140t-53 109q-42 -20 -100 -34t-112 -35t-93 -56t-47 -95q-4 -24 -7 -64t-7 -76q-6 -44 -10 -90h-102zM135 1664q-5 30 21 69t72 84t92 87q34 0 46 -18t12 -42v-14q-4 -24 -24 -52t-48 -56t-59 -54 t-53 -46q-54 12 -59 42zM224 502q38 0 81 10t83 27t73 42t51 57q-16 70 -35 145t-41 152t-48 151t-56 144q-2 2 -14 9t-36 -9l-4 -34q-2 -34 -6 -79t-9 -92t-7 -79q-10 -112 -21 -221t-11 -223z" />
<glyph unicode="&#xc2;" horiz-adv-x="800" d="M-60 1574q0 4 1 9t1 7l254 474q2 8 22 20t42 12q2 0 6 -1l4 -1l328 -382q40 -8 47 -20t7 -32q0 -8 -3 -21t-11 -24t-21 -19t-33 -8h-8q-2 0 -2 2l-280 350q-10 18 -38 18h-10l-228 -398q-2 -4 -12 -10t-14 -6q-36 0 -44 8t-8 22zM52 52q6 28 10 72t11 116t16 178t25 258 t37 357t55 477q2 20 19 24t31 4q22 0 36 -16t25 -36t21 -42t22 -36q20 -46 41 -106t45 -128t48 -137t48 -134t45 -120t39 -91q22 2 62 17t86 29t90 22t74 1t39 -35t-15 -88q-14 0 -26 5l-24 10t-25 10t-29 5q-10 0 -45 -11t-75 -24t-70 -26t-30 -19l138 -542l-52 -76 q-34 58 -57 133t-43 150t-41 140t-53 109q-42 -20 -100 -34t-112 -35t-93 -56t-47 -95q-4 -24 -7 -64t-7 -76q-6 -44 -10 -90h-102zM224 502q38 0 81 10t83 27t73 42t51 57q-16 70 -35 145t-41 152t-48 151t-56 144q-2 2 -14 9t-36 -9l-4 -34q-2 -34 -6 -79t-9 -92t-7 -79 q-10 -112 -21 -221t-11 -223z" />
<glyph unicode="&#xc3;" horiz-adv-x="800" d="M-24 1850q4 62 31 104t66 67t86 34t90 5t79 -20t52 -44q28 -92 55 -123t53 -27t50 35t45 64t39 58t32 17q28 8 53 9t35 -35q12 -30 -7 -67t-54 -74t-76 -68t-77 -49q-30 -8 -59 -4t-54 15t-42 27t-23 34q-26 14 -37 42t-24 55t-31 46t-56 17q-42 0 -60 -20t-30 -48 t-25 -57t-39 -49q-20 -6 -33 -3t-20 11t-11 21t-8 27zM52 52q6 28 10 72t11 116t16 178t25 258t37 357t55 477q2 20 19 24t31 4q22 0 36 -16t25 -36t21 -42t22 -36q20 -46 41 -106t45 -128t48 -137t48 -134t45 -120t39 -91q22 2 62 17t86 29t90 22t74 1t39 -35t-15 -88 q-14 0 -26 5l-24 10t-25 10t-29 5q-10 0 -45 -11t-75 -24t-70 -26t-30 -19l138 -542l-52 -76q-34 58 -57 133t-43 150t-41 140t-53 109q-42 -20 -100 -34t-112 -35t-93 -56t-47 -95q-4 -24 -7 -64t-7 -76q-6 -44 -10 -90h-102zM224 502q38 0 81 10t83 27t73 42t51 57 q-16 70 -35 145t-41 152t-48 151t-56 144q-2 2 -14 9t-36 -9l-4 -34q-2 -34 -6 -79t-9 -92t-7 -79q-10 -112 -21 -221t-11 -223z" />
<glyph unicode="&#xc4;" horiz-adv-x="800" d="M52 52q6 28 10 72t11 116t16 178t25 258t37 357t55 477q2 20 19 24t31 4q22 0 36 -16t25 -36t21 -42t22 -36q20 -46 41 -106t45 -128t48 -137t48 -134t45 -120t39 -91q22 2 62 17t86 29t90 22t74 1t39 -35t-15 -88q-14 0 -26 5l-24 10t-25 10t-29 5q-10 0 -45 -11 t-75 -24t-70 -26t-30 -19l138 -542l-52 -76q-34 58 -57 133t-43 150t-41 140t-53 109q-42 -20 -100 -34t-112 -35t-93 -56t-47 -95q-4 -24 -7 -64t-7 -76q-6 -44 -10 -90h-102zM104 1764q28 30 48 41t52 11q54 0 54 -52q0 -12 -7 -27t-18 -28t-25 -21t-26 -2q-14 -8 -29 -4 t-27 16t-19 29t-3 37zM224 502q38 0 81 10t83 27t73 42t51 57q-16 70 -35 145t-41 152t-48 151t-56 144q-2 2 -14 9t-36 -9l-4 -34q-2 -34 -6 -79t-9 -92t-7 -79q-10 -112 -21 -221t-11 -223zM368 1764q30 30 50 41t52 11q54 0 54 -52q0 -12 -7 -27t-19 -28t-26 -21t-26 -2 q-12 -8 -28 -4t-28 16t-18 29t-4 37z" />
<glyph unicode="&#xc5;" horiz-adv-x="800" d="M10 1680q12 36 47 65t89 47t120 18q46 0 76 -6t52 -17t37 -26t29 -33q22 -64 23 -115t-30 -86t-101 -53q-12 -4 -26 -8q6 -10 10 -22q12 -22 24 -36q20 -46 41 -106t45 -128t48 -137t48 -134t45 -120t39 -91q22 2 62 17t86 29t90 22t74 1t39 -35t-15 -88q-14 0 -26 5 l-24 10t-25 10t-29 5q-10 0 -45 -11t-75 -24t-70 -26t-30 -19l138 -542l-52 -76q-34 58 -57 133t-43 150t-41 140t-53 109q-42 -20 -100 -34t-112 -35t-93 -56t-47 -95q-4 -24 -7 -64t-7 -76q-6 -44 -10 -90h-102q6 28 10 72t11 116t16 178t25 258t38 358q18 184 46 426 q-14 0 -32 2q-46 0 -75 16t-47 39t-24 48t-6 41q-16 38 -4 74zM116 1610q0 -22 21 -36t45 -34q30 -2 52 -4q12 2 22 2q8 0 16 -4q24 0 40 4q18 8 30 26t34 50q4 34 -14 58t-48 35t-65 11t-65 -11t-49 -36t-19 -61zM224 502q38 0 81 10t83 27t73 42t51 57q-16 70 -35 145 t-41 152t-48 151t-56 144q-2 2 -14 9t-36 -9l-4 -34q-2 -34 -6 -79t-9 -92t-7 -79q-10 -112 -21 -221t-11 -223z" />
<glyph unicode="&#xc6;" horiz-adv-x="1452" d="M52 52q6 28 10 72t11 116t16 178t25 258t37 357t55 477q2 20 19 24t31 4q22 0 36 -16t25 -36t21 -42t22 -36q20 -46 41 -106t45 -128t48 -137t48 -134t45 -120t39 -91h6q-4 154 -16 307t-36 313q0 4 -5 16t-9 24t-8 23t-4 15q0 8 7 23t18 27t25 20t28 6q24 -4 39 -29 t23 -53t11 -56t3 -42q60 34 135 71t154 68t157 52t150 21q0 -18 -7 -33t-27 -23l-562 -282v-78q2 -20 4 -66t6 -100t7 -107t5 -85q14 4 31 11t58 27t118 59t205 107l12 14q10 12 26 22t33 11t33 -21q4 -14 -31 -43t-88 -64t-117 -73t-119 -69t-91 -55t-36 -30l-4 -434 q26 -12 73 7t105 53t120 79t121 86t110 72t85 39q20 0 36 -8t16 -34q0 -22 -28 -38q-62 -36 -141 -91t-163 -112t-167 -109t-151 -84l-144 14v162q-22 84 -44 159t-58 121q-42 -20 -100 -34t-112 -35t-93 -56t-47 -95q-4 -24 -7 -64t-7 -76q-6 -44 -10 -90h-102zM224 502 q38 0 81 10t83 27t73 42t51 57q-16 70 -35 145t-41 152t-48 151t-56 144q-2 2 -14 9t-36 -9l-4 -34q-2 -34 -6 -79t-9 -92t-7 -79q-10 -112 -21 -221t-11 -223z" />
<glyph unicode="&#xc7;" horiz-adv-x="998" d="M50 358q0 64 13 174t40 236t67 255t95 233t126 170t157 66q50 0 85 -18t58 -49t34 -70t11 -85q-36 0 -58 19t-40 41t-37 41t-51 19q-64 0 -118 -61t-98 -155t-78 -209t-57 -224t-35 -198t-12 -133q0 -58 6 -113t26 -99t58 -71t108 -27q80 0 159 52t147 127t118 160 t72 149q4 2 18 3t18 1q24 0 45 -5t21 -37q-12 -64 -56 -135t-104 -139t-132 -126t-140 -98q-58 -34 -112 -50q10 -30 11 -71t-11 -77q92 -64 161 -98t116 -66t70 -77t23 -131q-14 -42 -62 -68t-110 -41t-127 -21t-111 -4q-42 0 -48 24t-6 56q0 6 41 14t94 20t103 29t66 42 t-16 57t-140 76q-90 0 -122 55t-32 151q8 78 18 118q-14 4 -26 10q-66 0 -113 37t-76 91t-43 116t-14 114z" />
<glyph unicode="&#xc8;" horiz-adv-x="972" d="M66 1382q0 10 7 24t18 27t25 21t28 6q24 -6 39 -30t23 -53t11 -57t3 -40q60 32 135 69t154 68t158 52t149 21q0 -18 -7 -32t-27 -24l-562 -282v-78q2 -22 5 -76t7 -115t7 -116t5 -75l412 230l10 12q10 12 26 22t33 11t33 -21q0 -36 -36 -70t-90 -68t-117 -66t-117 -62 t-90 -60t-36 -56v-386q26 -10 73 9t105 53t120 79t121 85t110 72t85 38q20 0 36 -8t16 -32t-28 -38q-70 -42 -161 -105t-185 -126t-185 -114t-157 -67q-26 0 -42 4t-36 24q0 162 2 318t-2 310t-16 309t-36 315q0 4 -5 16t-9 25t-8 23t-4 14zM262 1776v14q0 26 11 46t39 20 q42 -46 82 -94t63 -91t19 -75t-52 -44q-20 22 -46 49t-51 58t-44 62t-21 55z" />
<glyph unicode="&#xc9;" horiz-adv-x="972" d="M66 1382q0 10 7 24t18 27t25 21t28 6q24 -6 39 -30t23 -53t11 -57t3 -40q60 32 135 69t154 68t158 52t149 21q0 -18 -7 -32t-27 -24l-562 -282v-78q2 -22 5 -76t7 -115t7 -116t5 -75l412 230l10 12q10 12 26 22t33 11t33 -21q0 -36 -36 -70t-90 -68t-117 -66t-117 -62 t-90 -60t-36 -56v-386q26 -10 73 9t105 53t120 79t121 85t110 72t85 38q20 0 36 -8t16 -32t-28 -38q-70 -42 -161 -105t-185 -126t-185 -114t-157 -67q-26 0 -42 4t-36 24q0 162 2 318t-2 310t-16 309t-36 315q0 4 -5 16t-9 25t-8 23t-4 14zM359 1546q-5 30 21 69t72 84 t92 87q34 0 46 -18t12 -42v-14q-4 -24 -24 -52t-48 -56t-59 -54t-53 -46q-54 12 -59 42z" />
<glyph unicode="&#xca;" horiz-adv-x="972" d="M66 1382q0 10 7 24t18 27t25 21t28 6q24 -6 39 -30t23 -53t11 -57t3 -40q60 32 135 69t154 68t158 52t149 21q0 -18 -7 -32t-27 -24l-562 -282v-78q2 -22 5 -76t7 -115t7 -116t5 -75l412 230l10 12q10 12 26 22t33 11t33 -21q0 -36 -36 -70t-90 -68t-117 -66t-117 -62 t-90 -60t-36 -56v-386q26 -10 73 9t105 53t120 79t121 85t110 72t85 38q20 0 36 -8t16 -32t-28 -38q-70 -42 -161 -105t-185 -126t-185 -114t-157 -67q-26 0 -42 4t-36 24q0 162 2 318t-2 310t-16 309t-36 315q0 4 -5 16t-9 25t-8 23t-4 14zM154 1628q0 4 1 9t1 7l254 474 q2 8 22 20t42 12q2 0 6 -1l4 -1l328 -382q40 -8 47 -20t7 -32q0 -8 -3 -21t-11 -24t-21 -19t-33 -8h-8q-2 0 -2 2l-280 350q-10 18 -38 18h-10l-228 -398q-2 -4 -12 -10t-14 -6q-36 0 -44 8t-8 22z" />
<glyph unicode="&#xcb;" horiz-adv-x="972" d="M66 1382q0 10 7 24t18 27t25 21t28 6q24 -6 39 -30t23 -53t11 -57t3 -40q60 32 135 69t154 68t158 52t149 21q0 -18 -7 -32t-27 -24l-562 -282v-78q2 -22 5 -76t7 -115t7 -116t5 -75l412 230l10 12q10 12 26 22t33 11t33 -21q0 -36 -36 -70t-90 -68t-117 -66t-117 -62 t-90 -60t-36 -56v-386q26 -10 73 9t105 53t120 79t121 85t110 72t85 38q20 0 36 -8t16 -32t-28 -38q-70 -42 -161 -105t-185 -126t-185 -114t-157 -67q-26 0 -42 4t-36 24q0 162 2 318t-2 310t-16 309t-36 315q0 4 -5 16t-9 25t-8 23t-4 14zM240 1774q28 30 48 41t52 11 q54 0 54 -52q0 -12 -7 -27t-18 -28t-25 -21t-26 -2q-14 -8 -29 -4t-27 16t-19 29t-3 37zM504 1774q30 30 50 41t52 11q54 0 54 -52q0 -12 -7 -27t-19 -28t-26 -21t-26 -2q-12 -8 -28 -4t-28 16t-18 29t-4 37z" />
<glyph unicode="&#xcc;" horiz-adv-x="314" d="M34 1838v14q0 26 11 46t39 20q42 -46 82 -94t63 -91t19 -75t-52 -44q-20 22 -46 49t-51 58t-44 62t-21 55zM104 1494q0 16 11 23t26 8t32 -1t29 -2q10 -24 17 -95t14 -172t10 -223t6 -247t4 -245t2 -219t1 -169v-90q-2 -40 -17 -47t-69 9q-6 2 -10 60t-6 153t-4 218 t-4 253t-5 260t-7 237t-11 184t-19 105z" />
<glyph unicode="&#xcd;" horiz-adv-x="314" d="M69 1672q-5 30 21 69t72 84t92 87q34 0 46 -18t12 -42v-14q-4 -24 -24 -52t-48 -56t-59 -54t-53 -46q-54 12 -59 42zM104 1494q0 16 11 23t26 8t32 -1t29 -2q10 -24 17 -95t14 -172t10 -223t6 -247t4 -245t2 -219t1 -169v-90q-2 -40 -17 -47t-69 9q-6 2 -10 60t-6 153 t-4 218t-4 253t-5 260t-7 237t-11 184t-19 105z" />
<glyph unicode="&#xce;" horiz-adv-x="314" d="M-154 1576q0 4 1 9t1 7l254 474q2 8 22 20t42 12q2 0 6 -1l4 -1l328 -382q40 -8 47 -20t7 -32q0 -8 -3 -21t-11 -24t-21 -19t-33 -8h-8q-2 0 -2 2l-280 350q-10 18 -38 18h-10l-228 -398q-2 -4 -12 -10t-14 -6q-36 0 -44 8t-8 22zM104 1494q0 16 11 23t26 8t32 -1t29 -2 q10 -24 17 -95t14 -172t10 -223t6 -247t4 -245t2 -219t1 -169v-90q-2 -40 -17 -47t-69 9q-6 2 -10 60t-6 153t-4 218t-4 253t-5 260t-7 237t-11 184t-19 105z" />
<glyph unicode="&#xcf;" horiz-adv-x="314" d="M-28 1758q28 30 48 41t52 11q54 0 54 -52q0 -12 -7 -27t-18 -28t-25 -21t-26 -2q-14 -8 -29 -4t-27 16t-19 29t-3 37zM104 1494q0 16 11 23t26 8t32 -1t29 -2q10 -24 17 -95t14 -172t10 -223t6 -247t4 -245t2 -219t1 -169v-90q-2 -40 -17 -47t-69 9q-6 2 -10 60t-6 153 t-4 218t-4 253t-5 260t-7 237t-11 184t-19 105zM236 1758q30 30 50 41t52 11q54 0 54 -52q0 -12 -7 -27t-19 -28t-26 -21t-26 -2q-12 -8 -28 -4t-28 16t-18 29t-4 37z" />
<glyph unicode="&#xd0;" horiz-adv-x="1136" d="M36 428q0 8 11 28t15 24q62 4 106 10t80 16l-52 724q-6 -4 -21 -11t-31 -15t-31 -17t-19 -9q-2 0 -7 -1t-7 -1q-10 0 -23 5t-13 23q0 30 13 49t34 35t45 32t45 41t34 63t13 96q40 0 50 -14t12 -33t5 -38t29 -27q56 2 135 0t166 -13t172 -33t152 -62t106 -101t35 -149 q-26 -154 -99 -296t-172 -273t-214 -251t-229 -230q-2 0 -6 -1t-6 -1q-18 0 -30 12t-12 30q0 40 50 103t124 143t162 174t162 195t124 206t50 207q0 54 -30 93t-77 67t-106 44t-119 25t-114 12t-92 3q-10 0 -26 -1t-33 -2t-31 -3t-16 -2l-26 -24q0 -4 -1 -34t-2 -68t-1 -78 v-62q0 -130 7 -256t15 -252q40 8 85 15t111 7q10 0 17 -10t9 -22t2 -26v-14q0 -6 -1 -18t-1 -14l-216 -64q2 -36 2 -74v-74q0 -12 1 -26t-1 -27t-11 -22t-27 -9q-12 0 -24 6t-14 20q0 102 -15 149t-36 63t-46 13t-45 -3l-16 -2q-16 0 -34 2t-32 8t-14 20z" />
<glyph unicode="&#xd1;" horiz-adv-x="1108" d="M62 1230v96q24 0 54 -16t58 -38t52 -49t38 -45l590 -794q6 34 11 126t4 209t-6 245t-14 239t-20 188t-29 93q0 30 11 56t43 26t52 -36t30 -81t15 -88t5 -57q2 -36 4 -109t4 -166t5 -197t6 -196t4 -167t3 -111q0 -26 9 -48l18 -44t17 -44t8 -46q0 -40 -29 -59t-65 -19 q-20 0 -35 5t-24 18t-10 33t7 52q-22 26 -68 85t-103 132t-121 153t-122 153t-104 131l-68 86q-4 6 -14 16l-48 48q-10 10 -16 14q-8 -116 2 -233t27 -233t34 -231t17 -231q0 -32 -6 -57t-48 -39q-40 14 -54 53t2 75zM86 1710q4 62 31 104t66 67t86 34t90 5t79 -20t52 -44 q28 -92 55 -123t53 -27t50 35t45 64t39 58t32 17q28 8 53 9t35 -35q12 -30 -7 -67t-54 -74t-76 -68t-77 -49q-30 -8 -59 -4t-54 15t-42 27t-23 34q-26 14 -37 42t-24 55t-31 46t-56 17q-42 0 -60 -20t-30 -48t-25 -57t-39 -49q-20 -6 -33 -3t-20 11t-11 21t-8 27z" />
<glyph unicode="&#xd2;" horiz-adv-x="784" d="M30 428q24 348 100 567t177 313t210 63t197 -183q30 -100 39 -224t-4 -251t-46 -249t-91 -220t-138 -165t-184 -81q-74 0 -124 46t-80 113t-43 140t-13 131zM136 440q0 -50 5 -104t23 -99t55 -74t99 -29q70 0 128 64t100 166t67 226t30 243t-12 219t-59 151t-111 41 t-165 -110q-28 -82 -56 -169t-50 -176t-38 -177t-16 -172zM432 1722v14q0 26 11 46t39 20q42 -46 82 -94t63 -91t19 -75t-52 -44q-20 22 -46 49t-51 58t-44 62t-21 55z" />
<glyph unicode="&#xd3;" horiz-adv-x="784" d="M30 428q24 348 100 567t177 313t210 63t197 -183q30 -100 39 -224t-4 -251t-46 -249t-91 -220t-138 -165t-184 -81q-74 0 -124 46t-80 113t-43 140t-13 131zM136 440q0 -50 5 -104t23 -99t55 -74t99 -29q70 0 128 64t100 166t67 226t30 243t-12 219t-59 151t-111 41 t-165 -110q-28 -82 -56 -169t-50 -176t-38 -177t-16 -172zM251 1500q-5 30 21 69t72 84t92 87q34 0 46 -18t12 -42v-14q-4 -24 -24 -52t-48 -56t-59 -54t-53 -46q-54 12 -59 42z" />
<glyph unicode="&#xd4;" horiz-adv-x="784" d="M30 428q24 348 100 567t177 313t210 63t197 -183q30 -100 39 -224t-4 -251t-46 -249t-91 -220t-138 -165t-184 -81q-74 0 -124 46t-80 113t-43 140t-13 131zM40 1388q0 4 1 9t1 7l254 474q2 8 22 20t42 12q2 0 6 -1l4 -1l328 -382q40 -8 47 -20t7 -32q0 -8 -3 -21 t-11 -24t-21 -19t-33 -8h-8q-2 0 -2 2l-280 350q-10 18 -38 18h-10l-228 -398q-2 -4 -12 -10t-14 -6q-36 0 -44 8t-8 22zM136 440q0 -50 5 -104t23 -99t55 -74t99 -29q70 0 128 64t100 166t67 226t30 243t-12 219t-59 151t-111 41t-165 -110q-28 -82 -56 -169t-50 -176 t-38 -177t-16 -172z" />
<glyph unicode="&#xd5;" horiz-adv-x="784" d="M30 428q24 348 100 567t177 313t210 63t197 -183q30 -100 39 -224t-4 -251t-46 -249t-91 -220t-138 -165t-184 -81q-74 0 -124 46t-80 113t-43 140t-13 131zM98 1602q4 62 31 104t66 67t86 34t90 5t79 -20t52 -44q28 -92 55 -123t53 -27t50 35t45 64t39 58t32 17 q28 8 53 9t35 -35q12 -30 -7 -67t-54 -74t-76 -68t-77 -49q-30 -8 -59 -4t-54 15t-42 27t-23 34q-26 14 -37 42t-24 55t-31 46t-56 17q-42 0 -60 -20t-30 -48t-25 -57t-39 -49q-20 -6 -33 -3t-20 11t-11 21t-8 27zM136 440q0 -50 5 -104t23 -99t55 -74t99 -29q70 0 128 64 t100 166t67 226t30 243t-12 219t-59 151t-111 41t-165 -110q-28 -82 -56 -169t-50 -176t-38 -177t-16 -172z" />
<glyph unicode="&#xd6;" horiz-adv-x="784" d="M30 428q24 348 100 567t177 313t210 63t197 -183q30 -100 39 -224t-4 -251t-46 -249t-91 -220t-138 -165t-184 -81q-74 0 -124 46t-80 113t-43 140t-13 131zM136 440q0 -50 5 -104t23 -99t55 -74t99 -29q70 0 128 64t100 166t67 226t30 243t-12 219t-59 151t-111 41 t-165 -110q-28 -82 -56 -169t-50 -176t-38 -177t-16 -172zM294 1594q28 30 48 41t52 11q54 0 54 -52q0 -12 -7 -27t-18 -28t-25 -21t-26 -2q-14 -8 -29 -4t-27 16t-19 29t-3 37zM558 1594q30 30 50 41t52 11q54 0 54 -52q0 -12 -7 -27t-19 -28t-26 -21t-26 -2q-12 -8 -28 -4 t-28 16t-18 29t-4 37z" />
<glyph unicode="&#xd7;" horiz-adv-x="930" d="M138 348l220 268l-192 294v12q0 8 2 14q6 12 22 26t48 0q12 -20 32 -55t45 -71t54 -72t55 -62q4 -2 6 -2q2 -2 6 -2q4 -2 4 -4t3 -1t11 11t29 35t57 70t96 113q30 10 50 4t28 -21t2 -33t-24 -36l-198 -238q16 -32 46 -73t58 -82t48 -82t16 -71q-16 -32 -60 -20 q-46 6 -58 29t-20 58t-28 79t-82 94q-42 -38 -92 -94t-82 -122q-8 -4 -25 -3t-35 5t-31 12t-11 20z" />
<glyph unicode="&#xd8;" horiz-adv-x="784" d="M30 428q24 348 100 567t177 313t209 64q20 -6 38 -14l22 72h98l-42 -132q42 -44 82 -110q30 -100 39 -224t-4 -251t-46 -249t-91 -220t-138 -165t-184 -81q-32 0 -60 8l-54 -178q-24 0 -44 20t-20 46v14l42 146q-40 44 -68 102q-30 68 -43 141t-13 131zM136 440 q0 -50 5 -104t23 -98q10 -32 30 -54l324 1056q-24 10 -58 4q-68 -10 -164 -110q-28 -82 -56 -169t-50 -176t-38 -177t-16 -172zM272 136q22 -2 46 -2q70 0 128 64t100 166t67 226t30 243t-13 219q-12 72 -38 120z" />
<glyph unicode="&#xd9;" d="M62 1160q-2 20 2 31t14 16t23 6t23 1h16q12 0 22 -2t18 -9t8 -19v-852q0 -36 11 -72t31 -67t50 -51t68 -20q76 6 131 81t95 189t66 248t46 258t35 220t33 134q38 34 60 17t33 -52t13 -76t-4 -59q0 -134 -13 -266t-13 -268q0 -86 8 -172t18 -172t18 -171t8 -169 q0 -16 -2 -33t-9 -31t-19 -24t-34 -10l-5 1t-9 1l-76 768q-20 -74 -53 -163t-82 -167t-117 -131t-158 -53q-70 0 -113 29t-67 78t-35 108t-15 119q-2 20 -4 81t-4 144t-5 177t-6 176t-5 144t-2 82zM314 1550v14q0 26 11 46t39 20q42 -46 82 -94t63 -91t19 -75t-52 -44 q-20 22 -46 49t-51 58t-44 62t-21 55z" />
<glyph unicode="&#xda;" d="M62 1160q-2 20 2 31t14 16t23 6t23 1h16q12 0 22 -2t18 -9t8 -19v-852q0 -36 11 -72t31 -67t50 -51t68 -20q76 6 131 81t95 189t66 248t46 258t35 220t33 134q38 34 60 17t33 -52t13 -76t-4 -59q0 -134 -13 -266t-13 -268q0 -86 8 -172t18 -172t18 -171t8 -169 q0 -16 -2 -33t-9 -31t-19 -24t-34 -10l-5 1t-9 1l-76 768q-20 -74 -53 -163t-82 -167t-117 -131t-158 -53q-70 0 -113 29t-67 78t-35 108t-15 119q-2 20 -4 81t-4 144t-5 177t-6 176t-5 144t-2 82zM381 1244q-5 30 21 69t72 84t92 87q34 0 46 -18t12 -42v-14q-4 -24 -24 -52 t-48 -56t-59 -54t-53 -46q-54 12 -59 42z" />
<glyph unicode="&#xdb;" d="M62 1160q-2 20 2 31t14 16t23 6t23 1h16q12 0 22 -2t18 -9t8 -19v-852q0 -36 11 -72t31 -67t50 -51t68 -20q76 6 131 81t95 189t66 248t46 258t35 220t33 134q38 34 60 17t33 -52t13 -76t-4 -59q0 -134 -13 -266t-13 -268q0 -86 8 -172t18 -172t18 -171t8 -169 q0 -16 -2 -33t-9 -31t-19 -24t-34 -10l-5 1t-9 1l-76 768q-20 -74 -53 -163t-82 -167t-117 -131t-158 -53q-70 0 -113 29t-67 78t-35 108t-15 119q-2 20 -4 81t-4 144t-5 177t-6 176t-5 144t-2 82zM104 1388q0 4 1 9t1 7l254 474q2 8 22 20t42 12q2 0 6 -1l4 -1l328 -382 q40 -8 47 -20t7 -32q0 -8 -3 -21t-11 -24t-21 -19t-33 -8h-8q-2 0 -2 2l-280 350q-10 18 -38 18h-10l-228 -398q-2 -4 -12 -10t-14 -6q-36 0 -44 8t-8 22z" />
<glyph unicode="&#xdc;" d="M62 1160q-2 20 2 31t14 16t23 6t23 1h16q12 0 22 -2t18 -9t8 -19v-852q0 -36 11 -72t31 -67t50 -51t68 -20q76 6 131 81t95 189t66 248t46 258t35 220t33 134q38 34 60 17t33 -52t13 -76t-4 -59q0 -134 -13 -266t-13 -268q0 -86 8 -172t18 -172t18 -171t8 -169 q0 -16 -2 -33t-9 -31t-19 -24t-34 -10l-5 1t-9 1l-76 768q-20 -74 -53 -163t-82 -167t-117 -131t-158 -53q-70 0 -113 29t-67 78t-35 108t-15 119q-2 20 -4 81t-4 144t-5 177t-6 176t-5 144t-2 82zM256 1478q28 30 48 41t52 11q54 0 54 -52q0 -12 -7 -27t-18 -28t-25 -21 t-26 -2q-14 -8 -29 -4t-27 16t-19 29t-3 37zM520 1478q30 30 50 41t52 11q54 0 54 -52q0 -12 -7 -27t-19 -28t-26 -21t-26 -2q-12 -8 -28 -4t-28 16t-18 29t-4 37z" />
<glyph unicode="&#xdd;" horiz-adv-x="990" d="M24 1260v8q0 24 18 32t38 8q52 -62 111 -141t121 -157t126 -149t126 -117h26q8 14 28 69t49 131t61 168t61 181t50 167t31 128q2 4 12 4q30 0 49 -27t15 -55q-54 -190 -89 -312t-58 -199t-39 -124t-33 -89t-35 -93l-48 -136t-74 -218t-110 -339q-2 0 -11 -1t-13 -1 q-52 0 -52 52q0 72 22 141t48 139t45 139t13 145q-58 64 -128 139t-138 156t-126 168t-94 177q-2 2 -2 6zM445 1696q-5 30 21 69t72 84t92 87q34 0 46 -18t12 -42v-14q-4 -24 -24 -52t-48 -56t-59 -54t-53 -46q-54 12 -59 42z" />
<glyph unicode="&#xde;" horiz-adv-x="816" d="M62 288q-2 118 0 277t9 340t16 372t19 375q60 4 86 -1t31 -23t-4 -54t-18 -96t-12 -145t15 -205q60 80 104 119t85 56t85 21t106 16q62 -10 100 -45t59 -83t27 -102t4 -102q-2 -60 -13 -124t-67 -137t-173 -163t-335 -198q-4 0 -5 -25t0 -62t3 -79t3 -79t1 -61t-2 -24 l-86 -16q-18 -4 -27 63t-11 185zM178 506q10 8 48 23t91 39t113 62t112 93t89 129t43 172q0 28 -8 60t-25 60t-43 47t-62 19q-74 0 -128 -28t-95 -73t-72 -102t-55 -115z" />
<glyph unicode="&#xdf;" horiz-adv-x="1100" d="M50 1334q0 10 1 20t6 18t16 12t29 -2q12 -4 24 -15t23 -28t18 -33t11 -26q46 36 100 73t115 66t124 47t121 18q20 0 48 -4t53 -14t42 -27t17 -43q6 -48 -11 -97t-46 -95t-66 -90t-74 -84t-68 -74t-47 -60q82 54 177 79t191 25q30 0 65 -3t65 -15t50 -34t20 -62t-37 -111 t-96 -156t-130 -172t-137 -158t-119 -116t-75 -45l-52 24q10 38 50 90t95 108t118 118t119 120t98 113t55 100t-11 76t-98 47q-78 0 -164 -27t-164 -77t-139 -119t-89 -155q0 -56 9 -110t19 -107t19 -107t9 -108q0 -40 -6 -66t-50 -26q-4 0 -13 1t-9 3l-178 1204 q-16 30 -22 52t-6 52zM206 1104q0 -74 10 -157t40 -153q30 26 75 69t94 93t96 106t86 108t62 97t23 75q0 24 -15 32t-35 8q-48 0 -123 -20t-144 -56t-119 -87t-50 -115z" />
<glyph unicode="&#xe0;" horiz-adv-x="750" d="M2 250q0 44 20 124t54 175t81 193t101 178t112 132t116 52q86 14 127 -37t15 -171q0 -132 11 -226t24 -180t24 -180t11 -226q0 -24 -5 -41t-49 -17q-6 0 -15 10t-9 16q-10 52 -17 125t-15 148t-19 141t-33 108q-102 -208 -180 -327t-137 -170t-99 -49t-66 36t-37 87 t-15 99zM100 262q0 -72 22 -81t54 23t73 92t80 128t74 132t55 104q18 42 28 78t17 69t8 67t1 72q-22 32 -60 6t-80 -86t-86 -144t-82 -170t-66 -163t-38 -127zM230 1434v14q0 26 11 46t39 20q42 -46 82 -94t63 -91t19 -75t-52 -44q-20 22 -46 49t-51 58t-44 62t-21 55z" />
<glyph unicode="&#xe1;" horiz-adv-x="750" d="M2 250q0 44 20 124t54 175t81 193t101 178t112 132t116 52q86 14 127 -37t15 -171q0 -132 11 -226t24 -180t24 -180t11 -226q0 -24 -5 -41t-49 -17q-6 0 -15 10t-9 16q-10 52 -17 125t-15 148t-19 141t-33 108q-102 -208 -180 -327t-137 -170t-99 -49t-66 36t-37 87 t-15 99zM100 262q0 -72 22 -81t54 23t73 92t80 128t74 132t55 104q18 42 28 78t17 69t8 67t1 72q-22 32 -60 6t-80 -86t-86 -144t-82 -170t-66 -163t-38 -127zM297 1244q-5 30 21 69t72 84t92 87q34 0 46 -18t12 -42v-14q-4 -24 -24 -52t-48 -56t-59 -54t-53 -46 q-54 12 -59 42z" />
<glyph unicode="&#xe2;" horiz-adv-x="750" d="M2 250q0 44 20 124t54 175t81 193t101 178t112 132t116 52q86 14 127 -37t15 -171q0 -132 11 -226t24 -180t24 -180t11 -226q0 -24 -5 -41t-49 -17q-6 0 -15 10t-9 16q-10 52 -17 125t-15 148t-19 141t-33 108q-102 -208 -180 -327t-137 -170t-99 -49t-66 36t-37 87 t-15 99zM24 1388q0 4 1 9t1 7l254 474q2 8 22 20t42 12q2 0 6 -1l4 -1l328 -382q40 -8 47 -20t7 -32q0 -8 -3 -21t-11 -24t-21 -19t-33 -8h-8q-2 0 -2 2l-280 350q-10 18 -38 18h-10l-228 -398q-2 -4 -12 -10t-14 -6q-36 0 -44 8t-8 22zM100 262q0 -72 22 -81t54 23t73 92 t80 128t74 132t55 104q18 42 28 78t17 69t8 67t1 72q-22 32 -60 6t-80 -86t-86 -144t-82 -170t-66 -163t-38 -127z" />
<glyph unicode="&#xe3;" horiz-adv-x="750" d="M2 250q0 44 20 124t54 175t81 193t101 178t112 132t116 52q86 14 127 -37t15 -171q0 -132 11 -226t24 -180t24 -180t11 -226q0 -24 -5 -41t-49 -17q-6 0 -15 10t-9 16q-10 52 -17 125t-15 148t-19 141t-33 108q-102 -208 -180 -327t-137 -170t-99 -49t-66 36t-37 87 t-15 99zM52 1336q4 62 31 104t66 67t86 34t90 5t79 -20t52 -44q28 -92 55 -123t53 -27t50 35t45 64t39 58t32 17q28 8 53 9t35 -35q12 -30 -7 -67t-54 -74t-76 -68t-77 -49q-30 -8 -59 -4t-54 15t-42 27t-23 34q-26 14 -37 42t-24 55t-31 46t-56 17q-42 0 -60 -20t-30 -48 t-25 -57t-39 -49q-20 -6 -33 -3t-20 11t-11 21t-8 27zM100 262q0 -72 22 -81t54 23t73 92t80 128t74 132t55 104q18 42 28 78t17 69t8 67t1 72q-22 32 -60 6t-80 -86t-86 -144t-82 -170t-66 -163t-38 -127z" />
<glyph unicode="&#xe4;" horiz-adv-x="750" d="M2 250q0 44 20 124t54 175t81 193t101 178t112 132t116 52q86 14 127 -37t15 -171q0 -132 11 -226t24 -180t24 -180t11 -226q0 -24 -5 -41t-49 -17q-6 0 -15 10t-9 16q-10 52 -17 125t-15 148t-19 141t-33 108q-102 -208 -180 -327t-137 -170t-99 -49t-66 36t-37 87 t-15 99zM100 262q0 -72 22 -81t54 23t73 92t80 128t74 132t55 104q18 42 28 78t17 69t8 67t1 72q-22 32 -60 6t-80 -86t-86 -144t-82 -170t-66 -163t-38 -127zM170 1478q28 30 48 41t52 11q54 0 54 -52q0 -12 -7 -27t-18 -28t-25 -21t-26 -2q-14 -8 -29 -4t-27 16t-19 29 t-3 37zM434 1478q30 30 50 41t52 11q54 0 54 -52q0 -12 -7 -27t-19 -28t-26 -21t-26 -2q-12 -8 -28 -4t-28 16t-18 29t-4 37z" />
<glyph unicode="&#xe5;" horiz-adv-x="750" d="M2 250q0 44 20 124t54 175t81 193t101 178q46 70 96 118q-8 0 -20 2q-44 0 -74 16t-47 40t-23 48t-6 40q-16 38 -5 74t46 66t89 48t122 18q44 0 75 -7t52 -17t37 -26t30 -34q22 -62 23 -113t-31 -87q-10 -14 -26 -22l16 -16q42 -52 16 -172q0 -132 11 -226t24 -180 t24 -180t11 -226q0 -24 -5 -41t-49 -17q-6 0 -15 10t-9 16q-10 52 -17 125t-15 148t-19 141t-33 108q-102 -208 -180 -327t-137 -170t-99 -49t-66 36t-37 87t-15 99zM100 262q0 -72 22 -81t54 23t73 92t80 128t74 132t55 104q18 42 28 78t17 69t8 67t1 72q-22 32 -60 6 t-80 -86t-86 -144t-82 -170t-66 -163t-38 -127zM286 1188q0 -22 21 -35t43 -33q54 -6 83 -7t47 5t31 24t35 52q2 34 -16 57t-47 35t-64 12t-65 -12t-50 -36t-18 -62z" />
<glyph unicode="&#xe6;" horiz-adv-x="1444" d="M2 250q0 44 20 124t54 175t81 193t101 178t112 132t116 52q86 14 127 -37t15 -171q0 -82 4 -150q8 18 16 40q26 66 55 130t68 117t95 84t136 29q34 0 77 -15t79 -43t60 -66t24 -82q8 -16 -20 -46t-79 -65t-113 -72t-120 -69t-102 -57t-60 -35q-8 -22 -14 -47t-9 -49 t-4 -42t-1 -30q0 -38 -4 -84t4 -86t34 -67t86 -27q68 0 126 32t108 81t91 105t73 104t58 81t44 33q20 0 44 -8t24 -32q0 -36 -29 -87t-77 -106t-108 -110t-122 -98t-122 -70t-106 -27q-90 0 -136 42q-6 6 -10 12v-32q0 -24 -5 -41t-49 -17q-6 0 -15 10t-9 16q-10 52 -17 125 t-15 148t-20 141q-2 10 -2 20q-10 0 -18 2q-22 2 -40 10q-4 2 -6 6q-82 -160 -148 -258q-76 -118 -135 -169t-99 -49t-66 36t-37 87t-15 99zM100 262q0 -72 22 -81t54 23t73 92t80 128t74 132t55 104q18 42 28 78t17 69t8 67t1 72q-22 32 -60 6t-80 -86t-86 -144t-82 -170 t-66 -163t-38 -127zM768 746q32 0 88 23t113 56t98 72t41 71q0 18 -13 31t-32 21t-40 11t-35 3q-34 0 -73 -33t-71 -80t-54 -95t-22 -80z" />
<glyph unicode="&#xe7;" horiz-adv-x="800" d="M52 460q6 72 12 157t19 169t34 160t56 135t87 94t126 33q50 0 77 -42t38 -102t12 -123t1 -103q-40 0 -66 35t-40 81t-20 90l-6 58q-2 0 -7 1t-7 1q-34 0 -63 -38t-54 -97t-43 -132t-30 -143t-19 -129t-7 -91q-4 -52 0 -114t24 -116t56 -93t96 -53q74 0 120 20t75 54 t45 76t31 87t31 89t46 82q24 6 35 -1t15 -19t4 -28v-22q0 -84 -28 -162t-82 -139t-129 -98t-169 -37q2 -18 2 -38q2 -42 -10 -78q92 -64 161 -97t116 -66t70 -78t23 -131q-14 -42 -62 -68t-110 -41t-127 -20t-111 -5q-42 0 -48 25t-6 55q0 8 41 16t94 19t103 29t66 42 t-16 56t-140 78q-90 0 -122 55t-32 149q8 74 18 116q-26 12 -44 32q-54 52 -83 124t-41 151t-12 135z" />
<glyph unicode="&#xe8;" horiz-adv-x="946" d="M-18 470q0 14 6 20t20 18q44 36 75 93t57 122t55 130t67 117t94 84t138 30q34 0 76 -16t78 -43t60 -65t24 -84q10 -16 -19 -46t-79 -65t-113 -72t-121 -69t-102 -56t-58 -36q-10 -20 -16 -46t-9 -49t-4 -42t-1 -29q0 -38 -3 -84t4 -87t33 -68t88 -27q66 0 124 33t108 81 t91 104t74 105t59 81t44 32q20 0 43 -7t23 -33q0 -36 -29 -86t-76 -106t-108 -111t-123 -98t-122 -70t-106 -27q-90 0 -136 44t-65 110t-20 141t-3 139l-30 -6t-42 -2t-39 12t-17 34zM260 682q30 0 87 23t113 57t98 72t42 72q0 18 -14 30t-33 20t-39 12t-36 4q-34 0 -72 -33 t-71 -80t-54 -96t-21 -81zM328 1434v14q0 26 11 46t39 20q42 -46 82 -94t63 -91t19 -75t-52 -44q-20 22 -46 49t-51 58t-44 62t-21 55z" />
<glyph unicode="&#xe9;" horiz-adv-x="946" d="M-18 470q0 14 6 20t20 18q44 36 75 93t57 122t55 130t67 117t94 84t138 30q34 0 76 -16t78 -43t60 -65t24 -84q10 -16 -19 -46t-79 -65t-113 -72t-121 -69t-102 -56t-58 -36q-10 -20 -16 -46t-9 -49t-4 -42t-1 -29q0 -38 -3 -84t4 -87t33 -68t88 -27q66 0 124 33t108 81 t91 104t74 105t59 81t44 32q20 0 43 -7t23 -33q0 -36 -29 -86t-76 -106t-108 -111t-123 -98t-122 -70t-106 -27q-90 0 -136 44t-65 110t-20 141t-3 139l-30 -6t-42 -2t-39 12t-17 34zM260 682q30 0 87 23t113 57t98 72t42 72q0 18 -14 30t-33 20t-39 12t-36 4q-34 0 -72 -33 t-71 -80t-54 -96t-21 -81zM393 1244q-5 30 21 69t72 84t92 87q34 0 46 -18t12 -42v-14q-4 -24 -24 -52t-48 -56t-59 -54t-53 -46q-54 12 -59 42z" />
<glyph unicode="&#xea;" horiz-adv-x="946" d="M-18 470q0 14 6 20t20 18q44 36 75 93t57 122t55 130t67 117t94 84t138 30q34 0 76 -16t78 -43t60 -65t24 -84q10 -16 -19 -46t-79 -65t-113 -72t-121 -69t-102 -56t-58 -36q-10 -20 -16 -46t-9 -49t-4 -42t-1 -29q0 -38 -3 -84t4 -87t33 -68t88 -27q66 0 124 33t108 81 t91 104t74 105t59 81t44 32q20 0 43 -7t23 -33q0 -36 -29 -86t-76 -106t-108 -111t-123 -98t-122 -70t-106 -27q-90 0 -136 44t-65 110t-20 141t-3 139l-30 -6t-42 -2t-39 12t-17 34zM118 1388q0 4 1 9t1 7l254 474q2 8 22 20t42 12q2 0 6 -1l4 -1l328 -382q40 -8 47 -20 t7 -32q0 -8 -3 -21t-11 -24t-21 -19t-33 -8h-8q-2 0 -2 2l-280 350q-10 18 -38 18h-10l-228 -398q-2 -4 -12 -10t-14 -6q-36 0 -44 8t-8 22zM260 682q30 0 87 23t113 57t98 72t42 72q0 18 -14 30t-33 20t-39 12t-36 4q-34 0 -72 -33t-71 -80t-54 -96t-21 -81z" />
<glyph unicode="&#xeb;" horiz-adv-x="946" d="M-18 470q0 14 6 20t20 18q44 36 75 93t57 122t55 130t67 117t94 84t138 30q34 0 76 -16t78 -43t60 -65t24 -84q10 -16 -19 -46t-79 -65t-113 -72t-121 -69t-102 -56t-58 -36q-10 -20 -16 -46t-9 -49t-4 -42t-1 -29q0 -38 -3 -84t4 -87t33 -68t88 -27q66 0 124 33t108 81 t91 104t74 105t59 81t44 32q20 0 43 -7t23 -33q0 -36 -29 -86t-76 -106t-108 -111t-123 -98t-122 -70t-106 -27q-90 0 -136 44t-65 110t-20 141t-3 139l-30 -6t-42 -2t-39 12t-17 34zM260 682q30 0 87 23t113 57t98 72t42 72q0 18 -14 30t-33 20t-39 12t-36 4q-34 0 -72 -33 t-71 -80t-54 -96t-21 -81zM268 1478q28 30 48 41t52 11q54 0 54 -52q0 -12 -7 -27t-18 -28t-25 -21t-26 -2q-14 -8 -29 -4t-27 16t-19 29t-3 37zM532 1478q30 30 50 41t52 11q54 0 54 -52q0 -12 -7 -27t-19 -28t-26 -21t-26 -2q-12 -8 -28 -4t-28 16t-18 29t-4 37z" />
<glyph unicode="&#xec;" horiz-adv-x="272" d="M-16 1590v14q0 24 11 44t39 20q42 -44 82 -93t63 -91t19 -75t-52 -45q-20 22 -46 50t-51 58t-44 61t-21 57zM66 894q2 142 18 266q4 2 19 3t21 1q28 0 45 -9t17 -39q0 -118 -1 -257t-2 -282t-1 -283t4 -254q2 -34 -13 -45t-37 -11q-24 0 -40 11t-12 45q0 130 -5 274 t-10 291t-3 289z" />
<glyph unicode="&#xed;" horiz-adv-x="272" d="M57 1485q-5 31 21 69t72 83t92 87q34 0 46 -18t12 -42v-14q-4 -22 -24 -50t-48 -56t-59 -54t-53 -46q-54 10 -59 41zM66 894q2 142 18 266q4 2 19 3t21 1q28 0 45 -9t17 -39q0 -118 -1 -257t-2 -282t-1 -283t4 -254q2 -34 -13 -45t-37 -11q-24 0 -40 11t-12 45 q0 130 -5 274t-10 291t-3 289z" />
<glyph unicode="&#xee;" horiz-adv-x="272" d="M-220 1388q0 4 1 9t1 7l254 474q4 8 24 20t40 12q2 0 6 -1t6 -1l328 -382q38 -8 46 -20t8 -32q0 -8 -4 -21t-12 -24t-21 -19t-33 -8h-6q-4 0 -4 2l-280 350q-10 18 -36 18h-12l-226 -398q-4 -4 -14 -10t-14 -6q-36 0 -44 8t-8 22zM66 894q2 142 18 266q4 2 19 3t21 1 q28 0 45 -9t17 -39q0 -118 -1 -257t-2 -282t-1 -283t4 -254q2 -34 -13 -45t-37 -11q-24 0 -40 11t-12 45q0 130 -5 274t-10 291t-3 289z" />
<glyph unicode="&#xef;" horiz-adv-x="272" d="M-68 1478q28 30 48 41t52 11q54 0 54 -52q0 -12 -7 -27t-19 -28t-25 -21t-27 -2q-12 -8 -27 -4t-28 16t-19 29t-2 37zM66 894q2 142 18 266q4 2 19 3t21 1q28 0 45 -9t17 -39q0 -118 -1 -257t-2 -282t-1 -283t4 -254q2 -34 -13 -45t-37 -11q-24 0 -40 11t-12 45 q0 130 -5 274t-10 291t-3 289zM196 1478q28 30 48 41t52 11q54 0 54 -52q0 -12 -7 -27t-18 -28t-25 -21t-26 -2q-14 -8 -29 -4t-27 16t-19 29t-3 37z" />
<glyph unicode="&#xf0;" horiz-adv-x="986" d="M137 353q-1 75 21 137t64 102t102 40q54 0 110 -26t103 -64t81 -81t42 -75q28 6 29 48t-15 103t-42 131t-48 134l-302 -36q0 2 -5 13t-7 19q0 4 -3 16t-2 25t8 23t23 12q66 12 123 19t111 11q-32 58 -70 128t-84 154q0 2 -3 9t-3 11q-2 14 4 29t30 17q8 2 21 2t24 -1 t20 -3t11 -6l160 -334q34 2 54 4t36 4t29 5t33 6t50 7t80 10q50 -28 49 -45t-25 -28t-59 -16t-53 -11l-146 -32q82 -174 88 -319t-44 -254t-144 -177t-208 -84q-84 30 -137 91t-79 134t-27 148zM230 321q0 -57 26 -114t90 -93q6 -6 21 -6t31 1t32 1t28 -4q80 46 109 93 t22 92t-42 84t-78 65t-89 37t-74 1q-32 -10 -54 -55t-22 -102z" />
<glyph unicode="&#xf1;" horiz-adv-x="990" d="M60 1130q0 48 52 48h16q6 0 14 -16t17 -59t20 -130t27 -227t36 -350q42 136 66 264t62 233t107 185t199 118q72 -12 116 -87t70 -185t36 -239t12 -247t2 -211t4 -133q-6 -16 -18 -28t-27 -17t-29 -2t-26 21q0 22 -4 90t-10 159t-13 194t-12 194t-9 159t-6 90 q-42 74 -83 84t-82 -26t-79 -110t-72 -167t-64 -195t-52 -197t-37 -172t-19 -119q-6 -14 -25 -27t-40 -19t-42 -3t-31 23q-22 270 -39 541t-37 563zM144 1500q4 62 31 104t66 67t86 34t90 5t79 -20t52 -44q28 -92 55 -123t53 -27t50 35t45 64t39 58t32 17q28 8 53 9t35 -35 q12 -30 -7 -67t-54 -74t-76 -68t-77 -49q-30 -8 -59 -4t-54 15t-42 27t-23 34q-26 14 -37 42t-24 55t-31 46t-56 17q-42 0 -60 -20t-30 -48t-25 -57t-39 -49q-20 -6 -33 -3t-20 11t-11 21t-8 27z" />
<glyph unicode="&#xf2;" horiz-adv-x="546" d="M36 453q0 87 11 177t32 187t49 209q0 22 12 41t32 32t42 21t42 8q44 0 80 -28t65 -68t50 -85t35 -77q16 -70 23 -159t1 -181t-28 -181t-62 -163t-103 -124t-149 -62q-46 0 -70 31t-35 76t-12 91t-1 76q-14 92 -14 179zM128 1434v14q0 26 11 46t39 20q42 -46 82 -94 t63 -91t19 -75t-52 -44q-20 22 -46 49t-51 58t-44 62t-21 55zM151 464q1 -92 1 -184q0 -20 1 -38t4 -35t8 -36t13 -43h12q48 0 82 32t58 83t40 114t25 124t12 114t3 85v40q0 26 -2 59t-7 68t-15 64t-26 47t-42 18q-44 14 -75 -6t-50 -67t-29 -115t-12 -150t-1 -174z" />
<glyph unicode="&#xf3;" horiz-adv-x="546" d="M36 453q0 87 11 177t32 187t49 209q0 22 12 41t32 32t42 21t42 8q44 0 80 -28t65 -68t50 -85t35 -77q16 -70 23 -159t1 -181t-28 -181t-62 -163t-103 -124t-149 -62q-46 0 -70 31t-35 76t-12 91t-1 76q-14 92 -14 179zM151 464q1 -92 1 -184q0 -20 1 -38t4 -35t8 -36 t13 -43h12q48 0 82 32t58 83t40 114t25 124t12 114t3 85v40q0 26 -2 59t-7 68t-15 64t-26 47t-42 18q-44 14 -75 -6t-50 -67t-29 -115t-12 -150t-1 -174zM193 1244q-5 30 21 69t72 84t92 87q34 0 46 -18t12 -42v-14q-4 -24 -24 -52t-48 -56t-59 -54t-53 -46q-54 12 -59 42z " />
<glyph unicode="&#xf4;" horiz-adv-x="546" d="M-78 1388q0 4 1 9t1 7l254 474q2 8 22 20t42 12q2 0 6 -1l4 -1l328 -382q40 -8 47 -20t7 -32q0 -8 -3 -21t-11 -24t-21 -19t-33 -8h-8q-2 0 -2 2l-280 350q-10 18 -38 18h-10l-228 -398q-2 -4 -12 -10t-14 -6q-36 0 -44 8t-8 22zM36 453q0 87 11 177t32 187t49 209 q0 22 12 41t32 32t42 21t42 8q44 0 80 -28t65 -68t50 -85t35 -77q16 -70 23 -159t1 -181t-28 -181t-62 -163t-103 -124t-149 -62q-46 0 -70 31t-35 76t-12 91t-1 76q-14 92 -14 179zM151 464q1 -92 1 -184q0 -20 1 -38t4 -35t8 -36t13 -43h12q48 0 82 32t58 83t40 114 t25 124t12 114t3 85v40q0 26 -2 59t-7 68t-15 64t-26 47t-42 18q-44 14 -75 -6t-50 -67t-29 -115t-12 -150t-1 -174z" />
<glyph unicode="&#xf5;" horiz-adv-x="546" d="M-58 1352q4 62 31 104t66 67t86 34t90 5t79 -20t52 -44q28 -92 55 -123t53 -27t50 35t45 64t39 58t32 17q28 8 53 9t35 -35q12 -30 -7 -67t-54 -74t-76 -68t-77 -49q-30 -8 -59 -4t-54 15t-42 27t-23 34q-26 14 -37 42t-24 55t-31 46t-56 17q-42 0 -60 -20t-30 -48 t-25 -57t-39 -49q-20 -6 -33 -3t-20 11t-11 21t-8 27zM36 453q0 87 11 177t32 187t49 209q0 22 12 41t32 32t42 21t42 8q44 0 80 -28t65 -68t50 -85t35 -77q16 -70 23 -159t1 -181t-28 -181t-62 -163t-103 -124t-149 -62q-46 0 -70 31t-35 76t-12 91t-1 76q-14 92 -14 179z M151 464q1 -92 1 -184q0 -20 1 -38t4 -35t8 -36t13 -43h12q48 0 82 32t58 83t40 114t25 124t12 114t3 85v40q0 26 -2 59t-7 68t-15 64t-26 47t-42 18q-44 14 -75 -6t-50 -67t-29 -115t-12 -150t-1 -174z" />
<glyph unicode="&#xf6;" horiz-adv-x="546" d="M36 453q0 87 11 177t32 187t49 209q0 22 12 41t32 32t42 21t42 8q44 0 80 -28t65 -68t50 -85t35 -77q16 -70 23 -159t1 -181t-28 -181t-62 -163t-103 -124t-149 -62q-46 0 -70 31t-35 76t-12 91t-1 76q-14 92 -14 179zM72 1478q28 30 48 41t52 11q54 0 54 -52 q0 -12 -7 -27t-18 -28t-25 -21t-26 -2q-14 -8 -29 -4t-27 16t-19 29t-3 37zM151 464q1 -92 1 -184q0 -20 1 -38t4 -35t8 -36t13 -43h12q48 0 82 32t58 83t40 114t25 124t12 114t3 85v40q0 26 -2 59t-7 68t-15 64t-26 47t-42 18q-44 14 -75 -6t-50 -67t-29 -115t-12 -150 t-1 -174zM336 1478q30 30 50 41t52 11q54 0 54 -52q0 -12 -7 -27t-19 -28t-26 -21t-26 -2q-12 -8 -28 -4t-28 16t-18 29t-4 37z" />
<glyph unicode="&#xf7;" horiz-adv-x="708" d="M48 562q0 6 11 26t17 26q88 6 155 14t128 17t124 15t141 6q12 0 18 -10t9 -23t3 -25v-14q0 -8 -2 -19t-2 -13l-448 -26q-4 -2 -26 -3t-32 -1l-16 -2q-14 0 -32 2t-33 9t-15 21zM272 808q0 26 7 44t47 18q42 0 48 -17t6 -43q0 -22 -5 -45t-35 -23q-68 0 -68 66zM300 296 q0 30 10 47t44 17q52 0 52 -54q0 -26 -18 -52t-48 -26t-35 22t-5 46z" />
<glyph unicode="&#xf8;" horiz-adv-x="546" d="M-6 -100l70 198q-2 2 -2 8q-10 46 -11 92t-1 76q-14 92 -14 179t11 177t32 187t49 209q0 22 12 41t32 32t42 21t42 8q44 0 80 -28q34 -28 64 -66l56 156h96l-94 -262q16 -34 28 -58q16 -70 23 -159t1 -181t-28 -181t-62 -163t-103 -124t-149 -62q-26 0 -44 8l-64 -178 q-26 0 -46 17t-20 39v14zM150 464q2 -64 2 -128l216 610l-8 12q-16 18 -42 18q-44 14 -75 -6t-50 -67t-29 -115t-12 -150t-2 -174zM172 142q2 -8 6 -14h12q48 0 82 32t58 83t40 114t25 124t12 114t3 85v40q0 26 -2 60q0 4 -2 10z" />
<glyph unicode="&#xf9;" horiz-adv-x="794" d="M66 966q8 20 21 24t31 4q16 0 29 -4t23 -24q0 -22 1 -74t5 -117t8 -136t7 -135t6 -115t5 -75q2 -14 5 -46t10 -67t18 -63t29 -30q30 0 61 26t61 66t56 88t47 93t32 81t13 52q4 34 8 97t6 135t3 136t1 98l110 -6q2 -162 -2 -293t-2 -246t18 -223t58 -224q-6 -6 -24 -17 t-26 -11q-50 0 -67 33t-22 78t-8 90t-27 71q-8 -24 -39 -65t-73 -82t-87 -72t-79 -31q-64 0 -105 60t-63 154t-30 209t-10 225t-2 200t-6 136zM252 1434v14q0 26 11 46t39 20q42 -46 82 -94t63 -91t19 -75t-52 -44q-20 22 -46 49t-51 58t-44 62t-21 55z" />
<glyph unicode="&#xfa;" horiz-adv-x="794" d="M66 966q8 20 21 24t31 4q16 0 29 -4t23 -24q0 -22 1 -74t5 -117t8 -136t7 -135t6 -115t5 -75q2 -14 5 -46t10 -67t18 -63t29 -30q30 0 61 26t61 66t56 88t47 93t32 81t13 52q4 34 8 97t6 135t3 136t1 98l110 -6q2 -162 -2 -293t-2 -246t18 -223t58 -224q-6 -6 -24 -17 t-26 -11q-50 0 -67 33t-22 78t-8 90t-27 71q-8 -24 -39 -65t-73 -82t-87 -72t-79 -31q-64 0 -105 60t-63 154t-30 209t-10 225t-2 200t-6 136zM317 1244q-5 30 21 69t72 84t92 87q34 0 46 -18t12 -42v-14q-4 -24 -24 -52t-48 -56t-59 -54t-53 -46q-54 12 -59 42z" />
<glyph unicode="&#xfb;" horiz-adv-x="794" d="M46 1388q0 4 1 9t1 7l254 474q2 8 22 20t42 12q2 0 6 -1l4 -1l328 -382q40 -8 47 -20t7 -32q0 -8 -3 -21t-11 -24t-21 -19t-33 -8h-8q-2 0 -2 2l-280 350q-10 18 -38 18h-10l-228 -398q-2 -4 -12 -10t-14 -6q-36 0 -44 8t-8 22zM66 966q8 20 21 24t31 4q16 0 29 -4 t23 -24q0 -22 1 -74t5 -117t8 -136t7 -135t6 -115t5 -75q2 -14 5 -46t10 -67t18 -63t29 -30q30 0 61 26t61 66t56 88t47 93t32 81t13 52q4 34 8 97t6 135t3 136t1 98l110 -6q2 -162 -2 -293t-2 -246t18 -223t58 -224q-6 -6 -24 -17t-26 -11q-50 0 -67 33t-22 78t-8 90 t-27 71q-8 -24 -39 -65t-73 -82t-87 -72t-79 -31q-64 0 -105 60t-63 154t-30 209t-10 225t-2 200t-6 136z" />
<glyph unicode="&#xfc;" horiz-adv-x="794" d="M66 966q8 20 21 24t31 4q16 0 29 -4t23 -24q0 -22 1 -74t5 -117t8 -136t7 -135t6 -115t5 -75q2 -14 5 -46t10 -67t18 -63t29 -30q30 0 61 26t61 66t56 88t47 93t32 81t13 52q4 34 8 97t6 135t3 136t1 98l110 -6q2 -162 -2 -293t-2 -246t18 -223t58 -224q-6 -6 -24 -17 t-26 -11q-50 0 -67 33t-22 78t-8 90t-27 71q-8 -24 -39 -65t-73 -82t-87 -72t-79 -31q-64 0 -105 60t-63 154t-30 209t-10 225t-2 200t-6 136zM192 1478q28 30 48 41t52 11q54 0 54 -52q0 -12 -7 -27t-18 -28t-25 -21t-26 -2q-14 -8 -29 -4t-27 16t-19 29t-3 37zM456 1478 q30 30 50 41t52 11q54 0 54 -52q0 -12 -7 -27t-19 -28t-26 -21t-26 -2q-12 -8 -28 -4t-28 16t-18 29t-4 37z" />
<glyph unicode="&#xfd;" horiz-adv-x="744" d="M44 870q0 26 9 45t47 19q8 0 28 -9t24 -17q44 -70 91 -156t98 -172t107 -165t118 -135l48 784q2 0 11 1t13 1q18 0 36 -5t26 -27q2 -72 1 -178t-4 -218t-6 -215t-5 -165q-2 -40 -7 -120t-12 -181t-16 -213t-17 -212t-14 -181t-10 -117h-104l60 774l-516 826q-2 2 -4 15 t-2 21zM293 1244q-5 30 21 69t72 84t92 87q34 0 46 -18t12 -42v-14q-4 -24 -24 -52t-48 -56t-59 -54t-53 -46q-54 12 -59 42z" />
<glyph unicode="&#xfe;" horiz-adv-x="900" d="M62 1282q4 26 13 42t51 6q42 -8 50 -45t3 -84t-13 -93t2 -74q62 46 121 89t121 73t131 42t153 -6q94 -22 131 -65t32 -101t-46 -126t-102 -139t-135 -139t-146 -127t-134 -104t-100 -65q-4 -36 -6 -90t-6 -112t-8 -112l-4 -90q-2 -2 -13 -5t-25 -3t-25 -1t-17 1 q-6 0 -12 11t-6 17q14 140 20 252t6 210t-6 189t-12 188t-12 209t-6 252zM173 766q3 -40 9 -85t12 -88t8 -73q76 58 163 111t165 114t138 139t84 186q10 44 -6 58t-52 22q-74 16 -159 -3t-159 -63t-129 -109t-71 -139q-6 -30 -3 -70z" />
<glyph unicode="&#xff;" horiz-adv-x="744" d="M44 870q0 26 9 45t47 19q8 0 28 -9t24 -17q44 -70 91 -156t98 -172t107 -165t118 -135l48 784q2 0 11 1t13 1q18 0 36 -5t26 -27q2 -72 1 -178t-4 -218t-6 -215t-5 -165q-2 -40 -7 -120t-12 -181t-16 -213t-17 -212t-14 -181t-10 -117h-104l60 774l-516 826q-2 2 -4 15 t-2 21zM168 1478q28 30 48 41t52 11q54 0 54 -52q0 -12 -7 -27t-18 -28t-25 -21t-26 -2q-14 -8 -29 -4t-27 16t-19 29t-3 37zM432 1478q30 30 50 41t52 11q54 0 54 -52q0 -12 -7 -27t-19 -28t-26 -21t-26 -2q-12 -8 -28 -4t-28 16t-18 29t-4 37z" />
<glyph unicode="&#x152;" horiz-adv-x="1500" d="M30 428q24 348 100 567t177 313t209 64q46 -14 86 -48l-2 16q-4 10 -4 14q0 8 7 23t18 27t24 20t29 6q22 -4 38 -29t24 -53t10 -56t2 -42q62 34 137 71t154 68t157 52t148 21q0 -18 -6 -33t-26 -23l-564 -282v-78q2 -22 6 -77t7 -115t7 -115t6 -77l410 230l12 14 q10 12 25 22t32 11t33 -21q0 -36 -36 -70t-90 -68t-117 -66t-117 -63t-90 -60t-36 -57v-384q28 -12 75 7t104 53t119 79t122 86t110 72t84 39q20 0 36 -8t16 -34q0 -22 -26 -38q-70 -40 -161 -103t-186 -126t-185 -115t-158 -68q-24 0 -41 5t-35 25v316v36q-26 -70 -62 -134 q-58 -96 -138 -163t-184 -81q-74 0 -124 46t-80 113t-43 140t-13 131zM136 440q0 -50 5 -104t23 -99t55 -74t99 -29q70 0 128 64t100 166t67 226t30 243t-12 219t-59 151t-111 41t-165 -110q-28 -82 -56 -169t-50 -176t-38 -177t-16 -172z" />
<glyph unicode="&#x153;" horiz-adv-x="1288" d="M36 453q0 87 11 177t32 187t49 209q0 22 12 41t32 32t42 21t42 8q44 0 80 -28t65 -68t50 -85t35 -77q8 -38 14 -81t10 -89q30 68 59 141t69 133t99 97t147 35q34 0 76 -15t78 -43t61 -66t25 -82q8 -16 -21 -46t-79 -65t-112 -72t-121 -69t-103 -57t-58 -35 q-10 -22 -16 -47t-9 -48t-3 -42v-31q0 -38 -4 -83t3 -86t33 -68t88 -27q66 0 125 32t108 81t91 105t74 104t58 81t44 33q20 0 43 -7t23 -33q0 -36 -28 -86t-76 -106t-108 -111t-123 -98t-123 -70t-104 -27q-88 0 -134 41t-66 104t-23 136t-3 137q-12 -82 -36 -157t-65 -134 t-99 -99t-132 -50q-46 0 -70 31t-35 76t-12 91t-1 76q-14 92 -14 179zM151 464q1 -92 1 -184q0 -20 1 -38t4 -35t8 -36t13 -43h12q52 0 88 39t63 99t40 131t19 133l2 2q2 48 5 86t3 62v40q0 26 -2 59t-7 68t-15 64t-26 47t-42 18q-44 14 -75 -6t-50 -67t-29 -115t-12 -150 t-1 -174zM650 706q30 0 87 23t114 56t98 72t41 71q0 18 -14 31t-32 21t-39 12t-35 4q-34 0 -73 -34t-72 -80t-54 -95t-21 -81z" />
<glyph unicode="&#x178;" horiz-adv-x="990" d="M24 1260v8q0 24 18 32t38 8q52 -62 111 -141t121 -157t126 -149t126 -117h26q8 14 28 69t49 131t61 168t61 181t50 167t31 128q2 4 12 4q30 0 49 -27t15 -55q-54 -190 -89 -312t-58 -199t-39 -124t-33 -89t-35 -93l-48 -136t-74 -218t-110 -339q-2 0 -11 -1t-13 -1 q-52 0 -52 52q0 72 22 141t48 139t45 139t13 145q-58 64 -128 139t-138 156t-126 168t-94 177q-2 2 -2 6zM290 1478q28 30 48 41t52 11q54 0 54 -52q0 -12 -7 -27t-18 -28t-25 -21t-26 -2q-14 -8 -29 -4t-27 16t-19 29t-3 37zM554 1478q30 30 50 41t52 11q54 0 54 -52 q0 -12 -7 -27t-19 -28t-26 -21t-26 -2q-12 -8 -28 -4t-28 16t-18 29t-4 37z" />
<glyph unicode="&#x2c6;" horiz-adv-x="800" d="M56 1388q0 4 1 9t1 7l254 474q2 8 22 20t42 12q2 0 6 -1l4 -1l328 -382q40 -8 47 -20t7 -32q0 -8 -3 -21t-11 -24t-21 -19t-33 -8h-8q-2 0 -2 2l-280 350q-10 18 -38 18h-10l-228 -398q-2 -4 -12 -10t-14 -6q-36 0 -44 8t-8 22z" />
<glyph unicode="&#x2dc;" horiz-adv-x="940" d="M76 1252q4 62 31 104t66 67t86 34t90 5t79 -20t52 -44q28 -92 55 -123t53 -27t50 35t45 64t39 58t32 17q28 8 53 9t35 -35q12 -30 -7 -67t-54 -74t-76 -68t-77 -49q-30 -8 -59 -4t-54 15t-42 27t-23 34q-26 14 -37 42t-24 55t-31 46t-56 17q-42 0 -60 -20t-30 -48 t-25 -57t-39 -49q-20 -6 -33 -3t-20 11t-11 21t-8 27z" />
<glyph unicode="&#x2000;" horiz-adv-x="1203" />
<glyph unicode="&#x2001;" horiz-adv-x="2406" />
<glyph unicode="&#x2002;" horiz-adv-x="1203" />
<glyph unicode="&#x2003;" horiz-adv-x="2406" />
<glyph unicode="&#x2004;" horiz-adv-x="802" />
<glyph unicode="&#x2005;" horiz-adv-x="601" />
<glyph unicode="&#x2006;" horiz-adv-x="401" />
<glyph unicode="&#x2007;" horiz-adv-x="401" />
<glyph unicode="&#x2008;" horiz-adv-x="300" />
<glyph unicode="&#x2009;" horiz-adv-x="481" />
<glyph unicode="&#x200a;" horiz-adv-x="133" />
<glyph unicode="&#x2010;" horiz-adv-x="818" d="M26 408q0 8 10 28t16 24q88 6 177 38t177 69t173 68t165 31q10 0 16 -10t9 -23t3 -25v-14q0 -8 -2 -19t-2 -13l-590 -178q-4 -2 -25 -3t-33 -1l-16 -2q-14 0 -32 2t-32 8t-14 20z" />
<glyph unicode="&#x2011;" horiz-adv-x="818" d="M26 408q0 8 10 28t16 24q88 6 177 38t177 69t173 68t165 31q10 0 16 -10t9 -23t3 -25v-14q0 -8 -2 -19t-2 -13l-590 -178q-4 -2 -25 -3t-33 -1l-16 -2q-14 0 -32 2t-32 8t-14 20z" />
<glyph unicode="&#x2012;" horiz-adv-x="818" d="M26 408q0 8 10 28t16 24q88 6 177 38t177 69t173 68t165 31q10 0 16 -10t9 -23t3 -25v-14q0 -8 -2 -19t-2 -13l-590 -178q-4 -2 -25 -3t-33 -1l-16 -2q-14 0 -32 2t-32 8t-14 20z" />
<glyph unicode="&#x2013;" horiz-adv-x="818" d="M26 408q0 8 10 28t16 24q88 6 177 38t177 69t173 68t165 31q10 0 16 -10t9 -23t3 -25v-14q0 -8 -2 -19t-2 -13l-590 -178q-4 -2 -25 -3t-33 -1l-16 -2q-14 0 -32 2t-32 8t-14 20z" />
<glyph unicode="&#x2014;" horiz-adv-x="1126" d="M26 408q0 8 10 28t16 24q60 4 137 18t163 33t176 39t174 37t157 29t127 12q12 0 18 -10t9 -22t3 -26v-14q0 -8 -2 -19t-2 -13l-834 -140q-4 -2 -25 -3t-33 -1l-16 -2q-14 0 -32 2t-32 8t-14 20z" />
<glyph unicode="&#x2018;" horiz-adv-x="318" d="M66 1204v14q0 26 11 46t39 20q32 0 50 -26t27 -64t11 -84t1 -88t-4 -73t-3 -41v-44q0 -30 -1 -65t-2 -65t-1 -42q-30 2 -51 24t-25 52q-2 16 -6 51t-9 77t-11 90t-11 91t-9 77t-6 50z" />
<glyph unicode="&#x2019;" horiz-adv-x="318" d="M66 1204v14q0 26 11 46t39 20q32 0 50 -26t27 -64t11 -84t1 -88t-4 -73t-3 -41v-44q0 -30 -1 -65t-2 -65t-1 -42q-30 2 -51 24t-25 52q-2 16 -6 51t-9 77t-11 90t-11 91t-9 77t-6 50z" />
<glyph unicode="&#x201a;" horiz-adv-x="318" d="M86 490v14q0 26 11 45t39 19q32 0 50 -25t27 -64t10 -84t1 -87t-3 -73t-3 -41v-44q0 -32 -1 -66t-2 -64t-1 -44q-30 4 -51 26t-25 52q-2 16 -6 50t-10 77t-11 90t-10 90t-9 78t-6 51z" />
<glyph unicode="&#x201c;" horiz-adv-x="436" d="M52 1590q8 20 22 23t30 3q24 0 38 -9t12 -45q10 -118 18 -224t8 -218q0 -14 1 -30t-2 -31t-12 -26t-27 -11q-14 0 -24 33t-17 87t-13 118t-11 127t-10 117t-13 86zM282 1152v438q16 4 31 -1t26 -14t16 -20t5 -17v-452q-30 0 -54 16t-24 50z" />
<glyph unicode="&#x201d;" horiz-adv-x="436" d="M52 1590q8 20 22 23t30 3q24 0 38 -9t12 -45q10 -118 18 -224t8 -218q0 -14 1 -30t-2 -31t-12 -26t-27 -11q-14 0 -24 33t-17 87t-13 118t-11 127t-10 117t-13 86zM282 1152v438q16 4 31 -1t26 -14t16 -20t5 -17v-452q-30 0 -54 16t-24 50z" />
<glyph unicode="&#x201e;" horiz-adv-x="436" d="M58 554q6 20 21 24t31 4q24 0 38 -9t12 -45q10 -120 18 -225t8 -219q0 -12 1 -28t-2 -32t-12 -26t-27 -10q-14 0 -24 33t-17 86t-14 118t-11 128t-10 117t-12 84zM288 116v438q16 6 30 0t25 -15t17 -19t6 -18v-452q-32 0 -55 16t-23 50z" />
<glyph unicode="&#x2022;" horiz-adv-x="388" d="M80 636q22 32 41 53t38 33t40 18t47 6q88 0 88 -110q0 -20 -11 -52t-30 -60t-42 -43t-45 -3q-20 -18 -46 -10t-46 32t-31 60t-3 76z" />
<glyph unicode="&#x2026;" horiz-adv-x="794" d="M52 78q28 30 48 41t52 11q54 0 54 -52q0 -12 -7 -27t-18 -29t-25 -21t-26 -1q-14 -10 -29 -5t-27 17t-19 29t-3 37zM316 78q30 30 50 41t52 11q54 0 54 -52q0 -12 -7 -27t-19 -29t-26 -21t-26 -1q-12 -10 -28 -5t-28 17t-18 29t-4 37zM582 78q28 30 48 41t52 11 q54 0 54 -52q0 -12 -7 -27t-19 -29t-25 -21t-27 -1q-12 -10 -27 -5t-28 17t-19 29t-2 37z" />
<glyph unicode="&#x202f;" horiz-adv-x="481" />
<glyph unicode="&#x2039;" horiz-adv-x="838" d="M98 726l4 6q2 4 2 6l606 504q10 10 17 23t14 22t18 13t29 -2q28 -10 31 -33t-5 -49q-2 -2 -2 -6q0 -2 -2 -4q-66 -92 -131 -150t-135 -108t-147 -102t-165 -132l14 -32q2 -4 44 -31t98 -62t117 -71t97 -58q8 -4 31 -14t50 -20t51 -19t34 -11q6 -22 8 -36t-6 -32 q-8 -24 -32 -42t-48 -26q-30 28 -89 64t-128 77t-141 85t-128 86t-87 81t-19 73z" />
<glyph unicode="&#x203a;" d="M94 296q6 40 59 93t126 110t154 117t144 115t96 105t9 86l-560 302q-6 6 -16 25t-10 27t5 18t13 22t17 21t17 15l612 -354q48 -32 42 -87t-49 -121t-113 -138t-148 -140t-154 -126t-131 -97t-82 -52t-3 7q-22 0 -25 20t-3 32z" />
<glyph unicode="&#x205f;" horiz-adv-x="601" />
<glyph unicode="&#x20ac;" horiz-adv-x="1208" d="M18 390q0 8 10 28t16 24q56 4 112 16t110 26q4 48 13 105t19 121q-56 -10 -101 -14t-63 -4q-70 0 -70 64q0 4 2 18t4 20q30 4 100 14t154 20q28 120 69 239t95 214t121 153t149 58q48 0 83 -18t59 -49t34 -70t10 -85q-36 0 -57 19t-39 41t-38 41t-50 19q-58 0 -108 -49 t-90 -126t-73 -176t-59 -199q76 10 139 18t89 12q4 0 20 1t34 1t35 1t19 1q0 -22 -32 -44t-83 -41t-116 -34t-131 -27q-24 -124 -36 -212q116 36 230 71t238 35q0 -56 -46 -84t-107 -42t-120 -18t-85 -12q-14 -4 -46 -14t-70 -22v-20q0 -58 5 -113t25 -99t59 -71t107 -27 q80 0 160 18t147 53t118 86t71 115q4 2 19 3t17 1q24 0 46 -5t22 -37q-14 -64 -58 -119t-104 -98t-131 -74t-140 -47t-127 -15t-94 19q-64 0 -111 37t-77 91t-43 116t-13 114v40q-54 -20 -99 -35t-65 -25q-22 10 -40 18q-14 10 -26 18t-12 16z" />
<glyph unicode="&#x2122;" horiz-adv-x="2618" d="M24 1216q0 20 17 41t37 23l536 78q2 8 6 25t11 34t19 30t28 13q24 0 38 -12t24 -27l18 -27t20 -12h16q24 4 84 10t135 13t151 16t130 13q-4 20 -7 38t-7 38q-2 36 12 45t36 9q48 0 87 -23t72 -58t57 -77t44 -76q16 -26 44 -82l66 -130q36 -72 74 -151t74 -150t66 -126 t46 -79q8 0 14 6t17 34t31 86t53 160t83 258t122 380q4 10 27 18t39 8q20 0 26 -12t10 -40q18 -170 29 -355t29 -374t45 -375t75 -354l-138 -54l-116 1332q-8 4 -23 -45t-38 -126t-51 -174t-60 -193t-64 -179t-64 -131t-60 -53t-50 57q-14 28 -44 89t-68 137t-79 160 t-79 159t-69 135t-45 88q-24 44 -43 71t-59 27q0 -140 16 -308t35 -340t35 -339t16 -309q10 -18 -4 -34t-36 -24t-49 -1t-45 33q-18 158 -19 322t-3 331t-10 333t-34 332q-62 -20 -142 -30t-159 -16t-144 -11t-97 -11q-8 -142 7 -296t38 -310t43 -310t20 -294q8 -28 7 -44 t-11 -22t-30 -6t-48 2q-20 72 -35 169t-27 208t-23 229t-21 234t-22 222t-28 192h-36q-64 0 -129 -12t-129 -27t-128 -27t-130 -12q-20 0 -41 5t-21 35z" />
<glyph unicode="&#x25fc;" horiz-adv-x="1240" d="M0 0v1240h1240v-1240h-1240z" />
<glyph unicode="&#xfb01;" horiz-adv-x="838" d="M42 730q0 20 19 38t45 36t52 34t38 32q-4 32 -6 120t1 201t14 233t34 215t61 149t98 34q42 0 76 -25t58 -62t37 -81t13 -80q0 -20 -9 -43t-33 -23h-6q-2 0 -4 2q-48 122 -81 155t-56 1t-38 -114t-25 -189t-18 -226t-16 -221q40 10 67 20t49 21t40 22t40 19q42 20 92 38 q18 8 34 12q4 56 12 108q4 2 19 3t21 1q26 0 43 -9t17 -41q0 -116 -1 -256t-1 -283v-282t2 -255q4 -34 -11 -45t-37 -11q-26 0 -41 11t-11 45q0 130 -5 275t-10 291t-3 290v10l-4 -2q-32 -24 -74 -35t-85 -19t-81 -16t-66 -20q6 -130 17 -228t20 -174t14 -139t-1 -125 q0 -14 1 -39t-2 -49t-15 -41t-38 -17q-24 0 -36 11t-16 45q-12 162 -19 275t-11 190t-4 121v92q0 8 -2 8q-8 0 -24 -7t-33 -16t-33 -17t-28 -8q-20 0 -35 8t-15 32zM584 1466q0 24 17 32t37 8q38 0 48 -26t10 -60q-10 -22 -28 -31t-37 -3t-33 25t-14 55z" />
<glyph unicode="&#xfb02;" horiz-adv-x="854" d="M42 730q0 20 19 38t45 36t52 34t38 32q-4 32 -6 120t1 201t14 233t34 215t61 149t98 34q42 0 76 -25t58 -62t37 -81t13 -80q0 -20 -9 -43t-33 -23h-6q-2 0 -4 2q-48 122 -81 155t-56 1t-38 -114t-25 -189t-18 -226t-16 -221q40 10 67 20t49 21t40 22t40 19q42 20 92 38 q36 16 72 18q-4 86 -10 162q-8 150 -22 269t-28 185q18 12 31 20t31 8q16 0 25 -6t15 -22q40 -390 55 -789t25 -793q0 -18 -1 -49t-3 -31q-28 -16 -50 -15t-40 12t-28 25t-10 28q14 92 20 229t5 294t-9 323l-2 52q-20 -36 -52 -58q-32 -24 -74 -35t-85 -19t-81 -16t-66 -20 q6 -130 17 -228t20 -174t14 -139t-1 -125q0 -14 1 -39t-2 -49t-15 -41t-38 -17q-24 0 -36 11t-16 45q-12 162 -19 275t-11 190t-4 121v92q0 8 -2 8q-8 0 -24 -7t-33 -16t-33 -17t-28 -8q-20 0 -35 8t-15 32z" />
</font>
</defs>
</svg>
